<?xml version="1.0" encoding="UTF-8" standalone="no"?>
<svg
   width="678.935pt"
   height="300.39432pt"
   viewBox="0 0 678.935 300.39432"
   version="1.1"
   id="svg4652"
   sodipodi:docname="meb.svg"
   inkscape:version="1.2.2 (732a01da63, 2022-12-09)"
   xml:space="preserve"
   xmlns:inkscape="http://www.inkscape.org/namespaces/inkscape"
   xmlns:sodipodi="http://sodipodi.sourceforge.net/DTD/sodipodi-0.dtd"
   xmlns="http://www.w3.org/2000/svg"
   xmlns:svg="http://www.w3.org/2000/svg"><defs
     id="defs4656"><clipPath
       clipPathUnits="userSpaceOnUse"
       id="clipPath4255"><g
         id="g4261"
         style="stroke-width:0.24711"
         transform="matrix(4.0467769,0,0,-4.0467769,-483.68716,881.57411)"><g
           id="g4259"
           style="stroke-width:0.24711"><path
             d="M -8106.6763,8381.1095 H 8087.9404 V -7813.5071 H -8106.6763 Z"
             id="path4257"
             style="stroke-width:0.24711" /></g></g></clipPath><clipPath
       clipPathUnits="userSpaceOnUse"
       id="clipPath4247"><g
         id="g4253"
         style="stroke-width:0.24711"
         transform="matrix(4.0467769,0,0,-4.0467769,37.910022,1148.4801)"><g
           id="g4251"
           style="stroke-width:0.24711"><path
             d="M -8106.6763,8381.1095 H 8087.9404 V -7813.5071 H -8106.6763 Z"
             id="path4249"
             style="stroke-width:0.24711" /></g></g></clipPath><clipPath
       clipPathUnits="userSpaceOnUse"
       id="clipPath558"><path
         d="M 0,0 H 850.394 V 850.394 H 0 Z"
         id="path556" /></clipPath><clipPath
       clipPathUnits="userSpaceOnUse"
       id="clipPath4239"><g
         id="g4245"
         style="stroke-width:0.24711"
         transform="matrix(4.0467769,0,0,-4.0467769,-567.61339,877.85613)"><g
           id="g4243"
           style="stroke-width:0.24711"><path
             d="M -8106.6763,8381.1095 H 8087.9404 V -7813.5071 H -8106.6763 Z"
             id="path4241"
             style="stroke-width:0.24711" /></g></g></clipPath><clipPath
       clipPathUnits="userSpaceOnUse"
       id="clipPath4231"><g
         id="g4237"
         style="stroke-width:0.24711"
         transform="matrix(4.0467769,0,0,-4.0467769,-582.89248,877.85613)"><g
           id="g4235"
           style="stroke-width:0.24711"><path
             d="M -8106.6763,8381.1095 H 8087.9404 V -7813.5071 H -8106.6763 Z"
             id="path4233"
             style="stroke-width:0.24711" /></g></g></clipPath><clipPath
       clipPathUnits="userSpaceOnUse"
       id="clipPath4223"><g
         id="g4229"
         style="stroke-width:0.24711"
         transform="matrix(4.0467769,0,0,-4.0467769,-602.04846,873.22132)"><g
           id="g4227"
           style="stroke-width:0.24711"><path
             d="M -8106.6763,8381.1095 H 8087.9404 V -7813.5071 H -8106.6763 Z"
             id="path4225"
             style="stroke-width:0.24711" /></g></g></clipPath><clipPath
       clipPathUnits="userSpaceOnUse"
       id="clipPath4215"><g
         id="g4221"
         style="stroke-width:0.24711"
         transform="matrix(4.0467769,0,0,-4.0467769,-625.58019,889.19524)"><g
           id="g4219"
           style="stroke-width:0.24711"><path
             d="M -8106.6763,8381.1095 H 8087.9404 V -7813.5071 H -8106.6763 Z"
             id="path4217"
             style="stroke-width:0.24711" /></g></g></clipPath><clipPath
       clipPathUnits="userSpaceOnUse"
       id="clipPath4207"><g
         id="g4213"
         style="stroke-width:0.24711"
         transform="matrix(4.0467769,0,0,-4.0467769,37.910022,1148.4801)"><g
           id="g4211"
           style="stroke-width:0.24711"><path
             d="M -8106.6763,8381.1095 H 8087.9404 V -7813.5071 H -8106.6763 Z"
             id="path4209"
             style="stroke-width:0.24711" /></g></g></clipPath><clipPath
       clipPathUnits="userSpaceOnUse"
       id="clipPath600"><path
         d="M 0,0 H 850.394 V 850.394 H 0 Z"
         id="path598" /></clipPath><clipPath
       clipPathUnits="userSpaceOnUse"
       id="clipPath4199"><g
         id="g4205"
         style="stroke-width:0.24711"
         transform="matrix(4.0467769,0,0,-4.0467769,-663.03869,881.58702)"><g
           id="g4203"
           style="stroke-width:0.24711"><path
             d="M -8106.6763,8381.1095 H 8087.9404 V -7813.5071 H -8106.6763 Z"
             id="path4201"
             style="stroke-width:0.24711" /></g></g></clipPath><clipPath
       clipPathUnits="userSpaceOnUse"
       id="clipPath4191"><g
         id="g4197"
         style="stroke-width:0.24711"
         transform="matrix(4.0467769,0,0,-4.0467769,37.910022,1148.4801)"><g
           id="g4195"
           style="stroke-width:0.24711"><path
             d="M -8106.6763,8381.1095 H 8087.9404 V -7813.5071 H -8106.6763 Z"
             id="path4193"
             style="stroke-width:0.24711" /></g></g></clipPath><clipPath
       clipPathUnits="userSpaceOnUse"
       id="clipPath618"><path
         d="M 0,0 H 850.394 V 850.394 H 0 Z"
         id="path616" /></clipPath><clipPath
       clipPathUnits="userSpaceOnUse"
       id="clipPath4183"><g
         id="g4189"
         style="stroke-width:0.24711"
         transform="matrix(4.0467769,0,0,-4.0467769,-577.09486,910.03412)"><g
           id="g4187"
           style="stroke-width:0.24711"><path
             d="M -8106.6763,8381.1095 H 8087.9404 V -7813.5071 H -8106.6763 Z"
             id="path4185"
             style="stroke-width:0.24711" /></g></g></clipPath><clipPath
       clipPathUnits="userSpaceOnUse"
       id="clipPath4175"><g
         id="g4181"
         style="stroke-width:0.999999"><g
           id="g4179"
           style="stroke-width:0.999999"><path
             d="M -8106.6763,8381.1095 H 8087.9404 V -7813.5071 H -8106.6763 Z"
             id="path4177"
             style="stroke-width:0.999999" /></g></g></clipPath><clipPath
       clipPathUnits="userSpaceOnUse"
       id="clipPath4167"><g
         id="g4173"
         style="stroke-width:0.24711"
         transform="matrix(4.0467769,0,0,-4.0467769,37.910022,1148.4801)"><g
           id="g4171"
           style="stroke-width:0.24711"><path
             d="M -8106.6763,8381.1095 H 8087.9404 V -7813.5071 H -8106.6763 Z"
             id="path4169"
             style="stroke-width:0.24711" /></g></g></clipPath><clipPath
       clipPathUnits="userSpaceOnUse"
       id="clipPath658"><path
         d="M 0,0 H 850.394 V 850.394 H 0 Z"
         id="path656" /></clipPath><clipPath
       clipPathUnits="userSpaceOnUse"
       id="clipPath4159"><g
         id="g4165"
         style="stroke-width:0.999999"><g
           id="g4163"
           style="stroke-width:0.999999"><path
             d="M -8106.6763,8381.1095 H 8087.9404 V -7813.5071 H -8106.6763 Z"
             id="path4161"
             style="stroke-width:0.999999" /></g></g></clipPath></defs><sodipodi:namedview
     id="namedview4654"
     pagecolor="#ffffff"
     bordercolor="#000000"
     borderopacity="0.25"
     inkscape:showpageshadow="2"
     inkscape:pageopacity="0.0"
     inkscape:pagecheckerboard="0"
     inkscape:deskcolor="#d1d1d1"
     inkscape:document-units="pt"
     showgrid="false"
     inkscape:zoom="0.75660426"
     inkscape:cx="625.82254"
     inkscape:cy="222.70559"
     inkscape:window-width="1920"
     inkscape:window-height="991"
     inkscape:window-x="-9"
     inkscape:window-y="-9"
     inkscape:window-maximized="1"
     inkscape:current-layer="svg4652" /><g
     id="surface1"
     transform="translate(-0.00178844,-0.0059515)"><path
       style="fill:#dc0c14;fill-opacity:1;fill-rule:nonzero;stroke:none"
       d="m 254.89453,254.64453 h -5.37891 c -1.03125,0 -1.48437,-1.39453 -0.67968,-2.08984 l 1.54297,-1.33985 c 1.3164,-1.13281 2.96093,-1.75781 4.64843,-1.75781 h 5.37891 c 1.03125,0 1.49609,1.38672 0.6875,2.08984 l -1.54297,1.33204 c -1.31641,1.14453 -2.95703,1.76562 -4.65625,1.76562"
       id="path4347" /><path
       style="fill:#dc0c14;fill-opacity:1;fill-rule:nonzero;stroke:none"
       d="m 261.93359,247.08594 -5.37109,0.37109 c -1.01563,0.0625 -1.57813,-1.28906 -0.82813,-2.03125 l 1.46094,-1.44531 c 1.22656,-1.22656 2.82422,-1.95703 4.50781,-2.07031 l 5.36719,-0.37891 c 1.02735,-0.0742 1.58203,1.29297 0.82422,2.03516 l -1.44141,1.44531 c -1.24218,1.22656 -2.82812,1.95703 -4.51953,2.07422"
       id="path4349" /><path
       style="fill:#dc0c14;fill-opacity:1;fill-rule:nonzero;stroke:none"
       d="m 268.42969,239.05859 -5.33594,0.75 c -1.01953,0.14063 -1.66406,-1.17968 -0.96875,-1.98047 l 1.33984,-1.53515 c 1.14844,-1.3086 2.6836,-2.15235 4.35547,-2.38281 l 5.33594,-0.75782 c 1.02344,-0.14062 1.66016,1.17188 0.96875,1.96875 l -1.33984,1.54297 c -1.15235,1.32813 -2.6875,2.16016 -4.35547,2.39453"
       id="path4351" /><path
       style="fill:#dc0c14;fill-opacity:1;fill-rule:nonzero;stroke:none"
       d="m 274.33984,230.61328 -5.26562,1.10156 c -1.00781,0.22266 -1.73828,-1.04687 -1.10156,-1.89453 l 1.22656,-1.625 c 1.05469,-1.39062 2.52734,-2.33594 4.17969,-2.6875 l 5.26953,-1.11328 c 1.00781,-0.21875 1.73828,1.05078 1.09765,1.89844 l -1.23828,1.6289 c -1.04687,1.37891 -2.51953,2.32813 -4.16797,2.69141"
       id="path4353" /><path
       style="fill:#dc0c14;fill-opacity:1;fill-rule:nonzero;stroke:none"
       d="m 279.64062,221.75 -5.16796,1.48047 c -0.9961,0.28125 -1.81641,-0.9336 -1.23829,-1.82422 l 1.1211,-1.70313 c 0.94531,-1.45312 2.35547,-2.5039 3.97656,-2.96875 l 5.17578,-1.47656 c 0.9961,-0.28906 1.82031,0.91797 1.23828,1.8125 l -1.12109,1.71485 c -0.95313,1.44921 -2.35547,2.5 -3.98438,2.96484"
       id="path4355" /><path
       style="fill:#dc0c14;fill-opacity:1;fill-rule:nonzero;stroke:none"
       d="m 284.32031,212.55078 -5.05078,1.83594 c -0.97266,0.35547 -1.87891,-0.79297 -1.35937,-1.72656 l 0.98828,-1.78125 c 0.84765,-1.51954 2.17578,-2.66407 3.77343,-3.23829 l 5.05079,-1.83593 c 0.97265,-0.35938 1.8789,0.79687 1.36718,1.72265 l -0.99609,1.78907 c -0.85156,1.51562 -2.18359,2.65625 -3.77344,3.23437"
       id="path4357" /><path
       style="fill:#dc0c14;fill-opacity:1;fill-rule:nonzero;stroke:none"
       d="m 288.34375,203.03906 -4.91406,2.19531 c -0.94141,0.41407 -1.92188,-0.66406 -1.48047,-1.63281 l 0.875,-1.84375 c 0.73828,-1.57812 1.98828,-2.8125 3.53515,-3.5 l 4.91797,-2.1875 c 0.9375,-0.41406 1.92578,0.67188 1.48047,1.625 l -0.87109,1.85156 c -0.75781,1.57813 -2,2.80469 -3.54297,3.49219"
       id="path4359" /><path
       style="fill:#dc0c14;fill-opacity:1;fill-rule:nonzero;stroke:none"
       d="m 291.69531,193.28516 -4.7539,2.52343 c -0.90235,0.48438 -1.96875,-0.53125 -1.57813,-1.51172 l 0.73828,-1.91015 c 0.63672,-1.625 1.78906,-2.9375 3.28125,-3.73828 l 4.75391,-2.52344 c 0.90625,-0.48438 1.97265,0.53516 1.57812,1.52344 l -0.73047,1.89843 c -0.64453,1.62891 -1.79296,2.94532 -3.28906,3.73829"
       id="path4361" /><path
       style="fill:#dc0c14;fill-opacity:1;fill-rule:nonzero;stroke:none"
       d="m 294.36328,183.3125 -4.56641,2.85547 c -0.875,0.53906 -1.99218,-0.39844 -1.6914,-1.41016 l 0.60547,-1.94922 c 0.51953,-1.66015 1.57812,-3.0664 3.01562,-3.95703 l 4.5586,-2.84375 c 0.875,-0.55469 2.0039,0.38281 1.67968,1.40235 l -0.60156,1.9414 c -0.50391,1.67578 -1.57031,3.07031 -3,3.96094"
       id="path4363" /><path
       style="fill:#dc0c14;fill-opacity:1;fill-rule:nonzero;stroke:none"
       d="m 296.32031,173.17187 -4.35547,3.16407 c -0.83593,0.60937 -2.01953,-0.2461 -1.78125,-1.27735 l 0.46094,-1.99218 c 0.39453,-1.69532 1.35938,-3.16016 2.73047,-4.15625 l 4.35156,-3.16407 c 0.83594,-0.60937 2.01563,0.25391 1.78125,1.28516 l -0.46875,1.99219 c -0.39062,1.70312 -1.35937,3.16015 -2.71875,4.14843"
       id="path4365" /><path
       style="fill:#dc0c14;fill-opacity:1;fill-rule:nonzero;stroke:none"
       d="m 297.56641,162.94141 -4.11719,3.44921 c -0.79688,0.66797 -2.04688,-0.10937 -1.8711,-1.15625 l 0.32422,-2.01171 c 0.27735,-1.72657 1.12891,-3.2461 2.42578,-4.33985 l 4.1211,-3.45703 c 0.79297,-0.66016 2.04297,0.10938 1.86719,1.15625 L 300,158.60156 c -0.28125,1.72266 -1.13672,3.2461 -2.43359,4.33985"
       id="path4367" /><path
       style="fill:#dc0c14;fill-opacity:1;fill-rule:nonzero;stroke:none"
       d="m 298.09766,152.625 -3.86719,3.73828 c -0.75391,0.71484 -2.04297,0.0352 -1.95313,-1.02344 l 0.1836,-2.03515 c 0.15625,-1.73828 0.90625,-3.32032 2.125,-4.49219 l 3.86328,-3.73828 c 0.74609,-0.71485 2.04687,-0.0273 1.94531,1.03125 l -0.18359,2.03125 c -0.14844,1.73437 -0.89063,3.32031 -2.11328,4.48828"
       id="path4369" /><path
       style="fill:#dc0c14;fill-opacity:1;fill-rule:nonzero;stroke:none"
       d="m 297.90234,142.3125 -3.60547,3.99609 c -0.6914,0.76953 -2.02343,0.17578 -2.0039,-0.88281 l 0.0351,-2.05078 c 0.043,-1.73828 0.67188,-3.36328 1.80079,-4.63281 l 3.59765,-4 c 0.69531,-0.76172 2.04297,-0.17188 2.01563,0.89843 l -0.043,2.03516 c -0.0274,1.74609 -0.66797,3.37891 -1.79688,4.63672"
       id="path4371" /><path
       style="fill:#dc0c14;fill-opacity:1;fill-rule:nonzero;stroke:none"
       d="m 296.99219,132.03125 -3.3125,4.22656 c -0.62891,0.82813 -2.01172,0.32422 -2.06641,-0.73437 l -0.10547,-2.04688 c -0.0859,-1.72656 0.44141,-3.41015 1.48047,-4.74219 L 296.30469,124.5 c 0.63672,-0.81641 2.0039,-0.32422 2.07031,0.73438 l 0.0977,2.04687 c 0.082,1.74609 -0.44141,3.41797 -1.48047,4.75"
       id="path4373" /><path
       style="fill:#dc0c14;fill-opacity:1;fill-rule:nonzero;stroke:none"
       d="m 295.37109,121.83984 -3.00781,4.45313 c -0.57422,0.86328 -1.99219,0.45703 -2.11719,-0.59375 L 290,123.67188 c -0.21094,-1.73438 0.1875,-3.4375 1.13672,-4.83985 l 3.01562,-4.45312 c 0.57422,-0.86328 1.98438,-0.46094 2.10938,0.59765 l 0.24609,2.02735 c 0.21094,1.73047 -0.19531,3.43359 -1.13672,4.83593"
       id="path4375" /><path
       style="fill:#dc0c14;fill-opacity:1;fill-rule:nonzero;stroke:none"
       d="m 293.03125,111.79297 -2.6875,4.64844 c -0.51953,0.89843 -1.95703,0.58984 -2.15234,-0.44922 l -0.38672,-2.00391 c -0.32032,-1.70703 -0.043,-3.4375 0.80859,-4.90234 l 2.68359,-4.65235 c 0.51172,-0.89453 1.95704,-0.59375 2.15235,0.44922 l 0.38672,2 c 0.32422,1.70313 0.0351,3.4375 -0.80469,4.91016"
       id="path4377" /><path
       style="fill:#dc0c14;fill-opacity:1;fill-rule:nonzero;stroke:none"
       d="m 290.00781,101.91797 -2.35547,4.83984 c -0.44922,0.91797 -1.91797,0.72266 -2.17578,-0.30078 l -0.52734,-1.97265 c -0.44531,-1.6836 -0.28516,-3.42969 0.44922,-4.949224 l 2.36328,-4.832031 c 0.44922,-0.925781 1.91406,-0.722656 2.17578,0.292969 l 0.52344,1.976562 c 0.44531,1.675782 0.28125,3.429684 -0.45313,4.945314"
       id="path4379" /><path
       style="fill:#dc0c14;fill-opacity:1;fill-rule:nonzero;stroke:none"
       d="m 286.29687,92.289062 -2.01171,4.988282 c -0.39454,0.953125 -1.85157,0.855468 -2.1875,-0.15625 l -0.66797,-1.929688 c -0.56641,-1.648437 -0.53125,-3.394531 0.10547,-4.964844 l 2.01171,-4.984374 c 0.39454,-0.953126 1.85938,-0.863282 2.1875,0.148437 l 0.66797,1.933594 c 0.56641,1.648437 0.52735,3.394531 -0.10547,4.964843"
       id="path4381" /><path
       style="fill:#dc0c14;fill-opacity:1;fill-rule:nonzero;stroke:none"
       d="m 281.92187,82.933594 -1.66796,5.121094 c -0.3086,0.972656 -1.77735,0.988281 -2.19532,0.0078 l -0.78515,-1.886719 c -0.67969,-1.605469 -0.75782,-3.359375 -0.23828,-4.960937 l 1.66015,-5.117188 c 0.32422,-0.976562 1.78906,-0.988281 2.19531,0 l 0.80079,1.871094 c 0.67968,1.613281 0.75781,3.359375 0.23046,4.964844"
       id="path4383" /><path
       style="fill:#dc0c14;fill-opacity:1;fill-rule:nonzero;stroke:none"
       d="m 276.90625,73.921875 -1.30469,5.21875 c -0.24219,1.011719 -1.71094,1.117187 -2.1875,0.167969 l -0.92969,-1.828125 C 271.69531,75.929688 271.5,74.191406 271.90234,72.550781 l 1.30078,-5.21875 c 0.25391,-0.996093 1.71875,-1.101562 2.19532,-0.15625 l 0.92187,1.816407 c 0.78906,1.542968 0.99219,3.289062 0.58594,4.929687"
       id="path4385" /><path
       style="fill:#dc0c14;fill-opacity:1;fill-rule:nonzero;stroke:none"
       d="m 271.27734,65.269531 -0.93359,5.296875 c -0.17578,1.015625 -1.63281,1.226563 -2.17969,0.3125 L 267.11719,69.125 c -0.89063,-1.5 -1.21875,-3.21875 -0.91797,-4.878906 l 0.93359,-5.292969 c 0.17969,-1.019531 1.625,-1.222656 2.17188,-0.316406 l 1.04687,1.753906 c 0.88281,1.492187 1.21875,3.21875 0.92578,4.878906"
       id="path4387" /><path
       style="fill:#dc0c14;fill-opacity:1;fill-rule:nonzero;stroke:none"
       d="m 265.05469,57.039062 -0.56641,5.339844 c -0.0977,1.027344 -1.53516,1.335938 -2.14453,0.464844 l -1.16406,-1.667969 c -0.9961,-1.433593 -1.44532,-3.128906 -1.26953,-4.804687 l 0.5664,-5.34375 c 0.10547,-1.03125 1.54297,-1.339844 2.14063,-0.46875 l 1.16797,1.683594 c 1.0039,1.421874 1.44531,3.105468 1.26953,4.796874"
       id="path4389" /><path
       style="fill:#dc0c14;fill-opacity:1;fill-rule:nonzero;stroke:none"
       d="M 258.26953,49.246094 258.08594,54.625 c -0.0352,1.03125 -1.44532,1.4375 -2.10938,0.609375 l -1.26953,-1.589844 c -1.10156,-1.363281 -1.66406,-3.015625 -1.60937,-4.707031 l 0.1914,-5.378906 c 0.0352,-1.03125 1.44531,-1.4375 2.10938,-0.609375 l 1.28515,1.585937 c 1.08594,1.367188 1.65625,3.027344 1.58594,4.710938"
       id="path4391" /><path
       style="fill:#dc0c14;fill-opacity:1;fill-rule:nonzero;stroke:none"
       d="m 250.96875,41.960938 0.17969,5.378906 c 0.043,1.03125 -1.33594,1.535156 -2.0586,0.757812 l -1.39062,-1.503906 c -1.1836,-1.273438 -1.85938,-2.894531 -1.92969,-4.578125 l -0.1875,-5.378906 c -0.0273,-1.03125 1.34766,-1.535157 2.07422,-0.757813 l 1.38281,1.5 c 1.1836,1.277344 1.86719,2.898438 1.92969,4.582032"
       id="path4393" /><path
       style="fill:#dc0c14;fill-opacity:1;fill-rule:nonzero;stroke:none"
       d="m 243.16797,35.199219 0.5625,5.34375 c 0.10547,1.023437 -1.22656,1.632812 -2.00391,0.90625 l -1.49609,-1.398438 c -1.26953,-1.183593 -2.05469,-2.761719 -2.23438,-4.4375 l -0.5625,-5.34375 c -0.10547,-1.023437 1.23438,-1.621093 2.00391,-0.902343 l 1.49609,1.402343 c 1.26953,1.183594 2.05469,2.753907 2.23438,4.429688"
       id="path4395" /><path
       style="fill:#dc0c14;fill-opacity:1;fill-rule:nonzero;stroke:none"
       d="m 234.91406,29 0.9336,5.296875 c 0.17578,1.023437 -1.11329,1.703125 -1.94922,1.035156 l -1.57813,-1.28125 c -1.34375,-1.101562 -2.24219,-2.601562 -2.53906,-4.273437 l -0.92969,-5.292969 c -0.18359,-1.023437 1.11328,-1.710937 1.9336,-1.042969 l 1.59375,1.289063 c 1.34375,1.09375 2.24218,2.601562 2.53515,4.269531"
       id="path4397" /><path
       style="fill:#dc0c14;fill-opacity:1;fill-rule:nonzero;stroke:none"
       d="m 226.25,23.390625 1.30078,5.21875 c 0.25391,0.996094 -0.98828,1.785156 -1.86328,1.167969 l -1.66406,-1.175782 c -1.42188,-0.996093 -2.42578,-2.449218 -2.83203,-4.074218 l -1.30469,-5.21875 c -0.2461,-1.007813 0.99609,-1.78125 1.86719,-1.171875 l 1.66015,1.171875 c 1.42578,0.996094 2.42578,2.449218 2.83594,4.082031"
       id="path4399" /><path
       style="fill:#dc0c14;fill-opacity:1;fill-rule:nonzero;stroke:none"
       d="m 217.21484,18.390625 1.66407,5.113281 c 0.3164,0.980469 -0.8711,1.851563 -1.77344,1.296875 l -1.7461,-1.058593 c -1.48828,-0.90625 -2.58984,-2.265626 -3.10937,-3.871094 l -1.66016,-5.113282 c -0.32422,-0.980468 0.86328,-1.84375 1.77344,-1.296874 l 1.74609,1.058593 c 1.48829,0.898438 2.58204,2.265625 3.10547,3.871094"
       id="path4401" /><path
       style="fill:#dc0c14;fill-opacity:1;fill-rule:nonzero;stroke:none"
       d="m 207.85547,14.050781 2.01953,4.976563 c 0.39062,0.957031 -0.73828,1.902344 -1.68359,1.417968 l -1.8086,-0.933593 c -1.55859,-0.792969 -2.74219,-2.082031 -3.375,-3.652344 L 200.99609,10.875 c -0.38672,-0.957031 0.73047,-1.902344 1.66797,-1.425781 l 1.82422,0.933593 c 1.55078,0.804688 2.72656,2.089844 3.36719,3.667969"
       id="path4403" /><path
       style="fill:#dc0c14;fill-opacity:1;fill-rule:nonzero;stroke:none"
       d="m 198.21094,10.355469 2.35547,4.832031 c 0.45703,0.925781 -0.59375,1.941406 -1.57032,1.535156 l -1.8789,-0.816406 C 195.51953,15.226562 194.23437,14.027344 193.5,12.507812 l -2.35547,-4.832031 c -0.44922,-0.917969 0.59375,-1.941406 1.57813,-1.527343 l 1.8789,0.804687 c 1.59766,0.6875 2.875,1.886719 3.60938,3.402344"
       id="path4405" /><path
       style="fill:#dc0c14;fill-opacity:1;fill-rule:nonzero;stroke:none"
       d="m 188.33984,7.347656 2.69141,4.65625 c 0.51172,0.894532 -0.46484,1.988282 -1.46484,1.632813 l -1.92969,-0.667969 c -1.64844,-0.566406 -3.00781,-1.683594 -3.85156,-3.140625 l -2.6836,-4.65625 c -0.51953,-0.898437 0.46094,-1.992187 1.46485,-1.640625 l 1.91406,0.679688 c 1.65625,0.566406 3.00781,1.667968 3.85937,3.136718"
       id="path4407" /><path
       style="fill:#dc0c14;fill-opacity:1;fill-rule:nonzero;stroke:none"
       d="m 178.26953,5.03125 3.01563,4.453125 c 0.57421,0.871094 -0.33204,2.027344 -1.35547,1.738281 l -1.96875,-0.53125 c -1.6836,-0.464844 -3.11328,-1.472656 -4.0625,-2.867187 l -3,-4.453125 c -0.57422,-0.851563 0.3164,-2.015625 1.34375,-1.742188 l 1.97265,0.542969 c 1.67578,0.453125 3.1211,1.464844 4.05469,2.859375"
       id="path4409" /><path
       style="fill:#dc0c14;fill-opacity:1;fill-rule:nonzero;stroke:none"
       d="m 168.07031,3.433594 3.31641,4.234375 c 0.63281,0.8125 -0.17969,2.035156 -1.22656,1.824219 l -1.9961,-0.394532 c -1.71875,-0.335937 -3.21484,-1.246094 -4.25,-2.578125 L 160.60937,2.28125 c -0.63671,-0.804688 0.17579,-2.023438 1.22266,-1.820312 l 1.99609,0.398437 c 1.70313,0.328125 3.20704,1.234375 4.24219,2.574219"
       id="path4411" /><path
       style="fill:#dc0c14;fill-opacity:1;fill-rule:nonzero;stroke:none"
       d="m 157.79297,2.542969 3.59375,3.996093 c 0.6875,0.773438 -0.0391,2.039063 -1.09766,1.902344 l -2.01562,-0.246094 c -1.73828,-0.226562 -3.29297,-1.023437 -4.42188,-2.28125 l -3.60547,-3.996093 c -0.67968,-0.769531 0.043,-2.035157 1.10157,-1.902344 l 2.02734,0.253906 c 1.72266,0.203125 3.28125,1.015625 4.41797,2.273438"
       id="path4413" /><path
       style="fill:#dc0c14;fill-opacity:1;fill-rule:nonzero;stroke:none"
       d="m 147.46875,2.375 3.87891,3.742188 c 0.73437,0.714843 0.0977,2.027343 -0.96875,1.972656 L 148.34375,7.96875 c -1.73828,-0.089844 -3.35156,-0.777344 -4.5625,-1.957031 l -3.87891,-3.734375 c -0.74218,-0.71875 -0.10547,-2.035156 0.95313,-1.980469 l 2.03906,0.121094 c 1.74609,0.089843 3.35547,0.777343 4.57422,1.957031"
       id="path4415" /><path
       style="fill:#dc0c14;fill-opacity:1;fill-rule:nonzero;stroke:none"
       d="m 137.16016,2.921875 4.11718,3.464844 c 0.79297,0.652343 0.2461,2.011719 -0.8164,2.03125 l -2.03907,0.027343 C 136.68359,8.480469 135.02734,7.90625 133.73828,6.8125 l -4.125,-3.457031 C 128.82031,2.6875 129.36719,1.328125 130.42969,1.320312 l 2.03906,-0.027343 c 1.73828,-0.027344 3.39453,0.546875 4.69141,1.628906"
       id="path4417" /><path
       style="fill:#dc0c14;fill-opacity:1;fill-rule:nonzero;stroke:none"
       d="m 126.91406,4.195312 4.35547,3.15625 c 0.82813,0.605469 0.37891,2 -0.67187,2.089844 l -2.04297,0.167969 c -1.73047,0.15625 -3.42969,-0.3125 -4.79688,-1.304687 l -4.34765,-3.160157 c -0.83203,-0.609375 -0.39063,-2.007812 0.67578,-2.097656 l 2.03125,-0.167969 c 1.73828,-0.140625 3.42969,0.316406 4.79687,1.316406"
       id="path4419" /><path
       style="fill:#dc0c14;fill-opacity:1;fill-rule:nonzero;stroke:none"
       d="m 116.78125,6.167969 4.56641,2.847656 c 0.86718,0.554687 0.52343,1.96875 -0.52735,2.136719 l -2.01953,0.316406 c -1.71875,0.265625 -3.4375,-0.07031 -4.875,-0.972656 l -4.55859,-2.847656 c -0.875,-0.554688 -0.51563,-1.972657 0.51953,-2.140626 l 2.01953,-0.308593 c 1.71875,-0.273438 3.4375,0.078125 4.875,0.96875"
       id="path4421" /><path
       style="fill:#dc0c14;fill-opacity:1;fill-rule:nonzero;stroke:none"
       d="m 106.81641,8.859375 4.7539,2.511719 c 0.90625,0.496094 0.66016,1.933594 -0.3789,2.171875 L 109.19922,14 c -1.70313,0.386719 -3.44141,0.167969 -4.92188,-0.628906 L 99.515625,10.851562 C 98.613281,10.367188 98.863281,8.921875 99.894531,8.691406 l 1.992189,-0.46875 c 1.69141,-0.386718 3.42969,-0.160156 4.92969,0.636719"
       id="path4423" /><path
       style="fill:#dc0c14;fill-opacity:1;fill-rule:nonzero;stroke:none"
       d="m 97.046875,12.226562 4.917965,2.175782 c 0.9375,0.425781 0.79688,1.882812 -0.21875,2.191406 l -1.96484,0.589844 c -1.660156,0.503906 -3.421875,0.40625 -4.957031,-0.28125 L 89.910156,14.722656 C 88.96875,14.296875 89.117188,12.84375 90.132812,12.527344 L 92.089844,11.9375 c 1.667968,-0.496094 3.414062,-0.398438 4.957031,0.289062"
       id="path4425" /><path
       style="fill:#dc0c14;fill-opacity:1;fill-rule:nonzero;stroke:none"
       d="m 87.550781,16.257812 5.058594,1.84375 c 0.96875,0.359376 0.925781,1.816407 -0.07031,2.195313 L 90.625,21.019531 c -1.613281,0.625 -3.386719,0.644531 -4.972656,0.0625 l -5.050782,-1.828125 c -0.964843,-0.359375 -0.917968,-1.824218 0.07031,-2.203125 l 1.910156,-0.722656 c 1.625,-0.617187 3.386719,-0.636719 4.96875,-0.07031"
       id="path4427" /><path
       style="fill:#dc0c14;fill-opacity:1;fill-rule:nonzero;stroke:none"
       d="m 78.359375,20.957031 5.167969,1.488281 c 0.988281,0.277344 1.050781,1.75 0.08594,2.195313 l -1.859375,0.847656 c -1.585937,0.726563 -3.332031,0.875 -4.953125,0.414063 l -5.17969,-1.488282 C 70.632812,24.125 70.574219,22.660156 71.542969,22.21875 l 1.859375,-0.855469 c 1.582031,-0.730469 3.335937,-0.867187 4.957031,-0.40625"
       id="path4429" /><path
       style="fill:#dc0c14;fill-opacity:1;fill-rule:nonzero;stroke:none"
       d="m 69.507812,26.28125 5.269532,1.121094 c 1.007812,0.21875 1.167968,1.667968 0.230468,2.179687 l -1.789062,0.988281 c -1.523438,0.835938 -3.261719,1.101563 -4.914062,0.757813 l -5.261719,-1.121094 c -1.007813,-0.210937 -1.171875,-1.667969 -0.246094,-2.179687 l 1.796875,-0.988282 c 1.535156,-0.835937 3.265625,-1.101562 4.914062,-0.757812"
       id="path4431" /><path
       style="fill:#dc0c14;fill-opacity:1;fill-rule:nonzero;stroke:none"
       d="m 61.066406,32.210938 5.320313,0.75 c 1.027343,0.148437 1.285156,1.585937 0.394531,2.160156 l -1.71875,1.109375 c -1.457031,0.945312 -3.167969,1.332031 -4.839844,1.09375 l -5.335937,-0.742188 c -1.023438,-0.148437 -1.269531,-1.59375 -0.382813,-2.160156 l 1.710938,-1.117187 c 1.472656,-0.945313 3.175781,-1.324219 4.851562,-1.09375"
       id="path4433" /><path
       style="fill:#dc0c14;fill-opacity:1;fill-rule:nonzero;stroke:none"
       d="m 53.050781,38.71875 5.363281,0.375 c 1.03125,0.0625 1.390626,1.492188 0.535157,2.128906 L 57.308594,42.4375 c -1.390625,1.050781 -3.066406,1.550781 -4.757813,1.4375 L 47.1875,43.503906 c -1.03125,-0.07813 -1.394531,-1.496094 -0.539062,-2.132812 l 1.632812,-1.226563 c 1.390625,-1.046875 3.078125,-1.542969 4.769531,-1.425781"
       id="path4435" /><path
       style="fill:#dc0c14;fill-opacity:1;fill-rule:nonzero;stroke:none"
       d="m 45.503906,45.753906 h 5.386719 c 1.023437,0 1.488281,1.394532 0.679687,2.097656 l -1.542968,1.332032 c -1.316406,1.136718 -2.953125,1.757812 -4.648438,1.757812 h -5.371094 c -1.039062,0 -1.5,-1.394531 -0.695312,-2.089844 l 1.542969,-1.332031 c 1.320312,-1.132812 2.953125,-1.765625 4.648437,-1.765625"
       id="path4437" /><path
       style="fill:#dc0c14;fill-opacity:1;fill-rule:nonzero;stroke:none"
       d="m 38.472656,53.320312 5.371094,-0.371093 c 1.023438,-0.07813 1.578125,1.28125 0.832031,2.035156 l -1.457031,1.4375 C 41.992188,57.648438 40.394531,58.375 38.714844,58.496094 L 33.34375,58.875 c -1.03125,0.07031 -1.582031,-1.289062 -0.828125,-2.035156 l 1.445313,-1.4375 c 1.226562,-1.242188 2.820312,-1.960938 4.511718,-2.082032"
       id="path4439" /><path
       style="fill:#dc0c14;fill-opacity:1;fill-rule:nonzero;stroke:none"
       d="M 31.984375,61.335938 37.3125,60.59375 c 1.019531,-0.140625 1.664062,1.175781 0.96875,1.96875 l -1.339844,1.535156 c -1.148437,1.3125 -2.683594,2.152344 -4.355468,2.386719 l -5.320313,0.757813 c -1.023437,0.136718 -1.667969,-1.171876 -0.976563,-1.980469 l 1.347657,-1.535157 c 1.136719,-1.304687 2.671875,-2.160156 4.347656,-2.390624"
       id="path4441" /><path
       style="fill:#dc0c14;fill-opacity:1;fill-rule:nonzero;stroke:none"
       d="m 26.066406,69.800781 5.257813,-1.117187 c 1.011719,-0.207032 1.753906,1.054687 1.101562,1.902344 l -1.226562,1.625 c -1.050781,1.390624 -2.53125,2.335937 -4.179688,2.6875 l -5.257812,1.113281 C 20.75,76.230469 20.019531,74.960938 20.660156,74.121094 l 1.242188,-1.628906 c 1.042968,-1.394532 2.523437,-2.339844 4.164062,-2.691407"
       id="path4443" /><path
       style="fill:#dc0c14;fill-opacity:1;fill-rule:nonzero;stroke:none"
       d="m 20.757812,78.65625 5.175782,-1.484375 c 0.988281,-0.28125 1.816406,0.9375 1.242187,1.816406 l -1.125,1.710938 c -0.953125,1.464843 -2.355469,2.507812 -3.980469,2.980469 l -5.167968,1.476562 c -0.992188,0.289062 -1.8125,-0.929688 -1.242188,-1.816406 l 1.121094,-1.710938 c 0.945312,-1.457031 2.355469,-2.507812 3.976562,-2.972656"
       id="path4445" /><path
       style="fill:#dc0c14;fill-opacity:1;fill-rule:nonzero;stroke:none"
       d="m 16.085938,87.851562 5.058593,-1.832031 c 0.964844,-0.355469 1.871094,0.800781 1.351563,1.726563 L 21.5,89.535156 c -0.847656,1.519532 -2.171875,2.671875 -3.773438,3.230469 l -5.046874,1.84375 C 11.710938,94.960938 10.800781,93.8125 11.320312,92.886719 L 12.3125,91.097656 c 0.855469,-1.523437 2.183594,-2.671875 3.773438,-3.246094"
       id="path4447" /><path
       style="fill:#dc0c14;fill-opacity:1;fill-rule:nonzero;stroke:none"
       d="m 12.0625,97.351562 4.914062,-2.179687 c 0.941407,-0.421875 1.921876,0.667969 1.480469,1.632813 l -0.871093,1.84375 c -0.734376,1.578122 -1.984376,2.808592 -3.53125,3.492192 l -4.917969,2.1914 c -0.9375,0.41016 -1.921875,-0.67578 -1.464844,-1.6289 l 0.863281,-1.85157 c 0.730469,-1.57031 1.984375,-2.804685 3.527344,-3.499998"
       id="path4449" /><path
       style="fill:#dc0c14;fill-opacity:1;fill-rule:nonzero;stroke:none"
       d="m 8.710938,107.12109 4.753906,-2.52343 c 0.902344,-0.48438 1.96875,0.53125 1.585937,1.51953 l -0.738281,1.91015 c -0.632812,1.61719 -1.789062,2.94532 -3.28125,3.73047 l -4.746094,2.52344 C 5.371094,114.76563 4.3125,113.75391 4.707031,112.76563 l 0.722657,-1.90625 c 0.636718,-1.62891 1.792968,-2.94532 3.28125,-3.73829"
       id="path4451" /><path
       style="fill:#dc0c14;fill-opacity:1;fill-rule:nonzero;stroke:none"
       d="m 6.042969,117.09375 4.558593,-2.85547 c 0.878907,-0.53906 2,0.40235 1.691407,1.41016 l -0.601563,1.95703 c -0.519531,1.66016 -1.578125,3.05859 -3.011718,3.95312 l -4.570313,2.84766 c -0.871094,0.55469 -2,-0.38281 -1.683594,-1.41016 l 0.597657,-1.9414 c 0.523437,-1.67578 1.589843,-3.07031 3.019531,-3.96094"
       id="path4453" /><path
       style="fill:#dc0c14;fill-opacity:1;fill-rule:nonzero;stroke:none"
       d="M 4.082031,127.21875 8.4375,124.05859 c 0.832031,-0.60546 2.023438,0.25782 1.78125,1.28907 l -0.464844,1.99218 c -0.390625,1.6875 -1.359375,3.16016 -2.726562,4.15625 l -4.347656,3.15625 c -0.835938,0.60938 -2.027344,-0.25 -1.78125,-1.28125 l 0.460937,-1.99218 c 0.402344,-1.69922 1.363281,-3.15625 2.722656,-4.16016"
       id="path4455" /><path
       style="fill:#dc0c14;fill-opacity:1;fill-rule:nonzero;stroke:none"
       d="m 2.832031,137.46484 4.125,-3.45703 C 7.75,133.33984 8.996094,134.125 8.820312,135.16406 L 8.5,137.17578 c -0.265625,1.72656 -1.128906,3.25 -2.425781,4.34375 l -4.125,3.44922 c -0.785157,0.66406 -2.0390628,-0.10547 -1.8632815,-1.14844 l 0.3125005,-2.02344 c 0.28125,-1.71484 1.144531,-3.24609 2.433593,-4.33203"
       id="path4457" /><path
       style="fill:#dc0c14;fill-opacity:1;fill-rule:nonzero;stroke:none"
       d="m 2.3125,147.78125 3.867188,-3.74609 c 0.742187,-0.70704 2.039062,-0.0273 1.941406,1.03125 l -0.175782,2.03515 c -0.152343,1.73047 -0.90625,3.31641 -2.125,4.49219 l -3.878906,3.73828 c -0.734375,0.71484 -2.0390622,0.0273 -1.9335935,-1.02344 l 0.1874995,-2.03125 c 0.148438,-1.74218 0.890626,-3.32422 2.117188,-4.49609"
       id="path4459" /><path
       style="fill:#dc0c14;fill-opacity:1;fill-rule:nonzero;stroke:none"
       d="m 2.496094,158.09766 3.597656,-4 c 0.695312,-0.75782 2.027344,-0.17579 2.011719,0.88671 l -0.046875,2.04688 c -0.027344,1.73047 -0.667969,3.36328 -1.804688,4.62109 l -3.597656,3.9961 c -0.6875,0.77343 -2.023438,0.16797 -2.003906,-0.89063 l 0.050781,-2.03515 c 0.027344,-1.7461 0.664063,-3.3711 1.792969,-4.625"
       id="path4461" /><path
       style="fill:#dc0c14;fill-opacity:1;fill-rule:nonzero;stroke:none"
       d="m 3.40625,168.375 3.3125,-4.23438 c 0.644531,-0.80468 2.011719,-0.3164 2.066406,0.74219 l 0.105469,2.05078 c 0.078125,1.72266 -0.441406,3.40625 -1.476563,4.73828 l -3.320312,4.23438 c -0.628906,0.81641 -2.011719,0.31641 -2.066406,-0.74219 L 1.921875,173.125 c -0.078125,-1.73828 0.449219,-3.42969 1.484375,-4.75"
       id="path4463" /><path
       style="fill:#dc0c14;fill-opacity:1;fill-rule:nonzero;stroke:none"
       d="m 5.042969,178.56641 3.007812,-4.45313 c 0.574219,-0.86328 1.992188,-0.46484 2.109375,0.58984 l 0.246094,2.03125 c 0.203125,1.72657 -0.195312,3.42969 -1.136719,4.83204 l -3.015625,4.46093 c -0.574218,0.86328 -1.988281,0.45703 -2.109375,-0.59765 L 3.898438,183.41016 C 3.6875,181.67187 4.09375,179.96875 5.042969,178.56641"
       id="path4465" /><path
       style="fill:#dc0c14;fill-opacity:1;fill-rule:nonzero;stroke:none"
       d="m 7.371094,188.62109 2.683594,-4.65625 c 0.519531,-0.89062 1.957031,-0.58984 2.152343,0.45703 l 0.386719,2 c 0.324219,1.70313 0.05078,3.4336 -0.804688,4.89844 l -2.6875,4.65625 c -0.519531,0.89063 -1.957031,0.58985 -2.152343,-0.44531 l -0.378907,-2.00781 c -0.328124,-1.70313 -0.042968,-3.4375 0.800782,-4.90235"
       id="path4467" /><path
       style="fill:#dc0c14;fill-opacity:1;fill-rule:nonzero;stroke:none"
       d="m 10.398438,198.48828 2.359374,-4.83984 c 0.445313,-0.91797 1.898438,-0.71485 2.171876,0.30468 l 0.519531,1.97657 c 0.457031,1.68359 0.285156,3.42187 -0.449219,4.94922 l -2.355469,4.83203 c -0.449219,0.92578 -1.910156,0.72265 -2.183593,-0.30078 L 9.945312,203.44141 C 9.496094,201.75 9.65625,200.00391 10.398438,198.48828"
       id="path4469" /><path
       style="fill:#dc0c14;fill-opacity:1;fill-rule:nonzero;stroke:none"
       d="m 14.109375,208.11719 2.011719,-4.98438 c 0.394531,-0.96094 1.859375,-0.86328 2.195312,0.14453 l 0.660156,1.92969 c 0.566407,1.64844 0.527344,3.40234 -0.105468,4.97266 l -2.011719,4.97656 c -0.378906,0.96094 -1.851563,0.86328 -2.1875,-0.14453 l -0.667969,-1.92969 c -0.5625,-1.64844 -0.527344,-3.39453 0.105469,-4.96484"
       id="path4471" /><path
       style="fill:#dc0c14;fill-opacity:1;fill-rule:nonzero;stroke:none"
       d="m 18.476562,217.46484 1.664063,-5.11328 c 0.316406,-0.98828 1.78125,-0.98828 2.195313,-0.004 l 0.792968,1.88281 c 0.671875,1.59375 0.757813,3.35547 0.238282,4.96094 l -1.664063,5.10937 c -0.320313,0.98438 -1.789063,0.98438 -2.195313,0.008 l -0.792968,-1.88672 c -0.671875,-1.60546 -0.75,-3.35156 -0.238282,-4.95703"
       id="path4473" /><path
       style="fill:#dc0c14;fill-opacity:1;fill-rule:nonzero;stroke:none"
       d="m 23.492188,226.48437 1.304687,-5.21875 c 0.246094,-1.00781 1.71875,-1.11328 2.195313,-0.16015 l 0.933593,1.8164 c 0.777344,1.55469 0.980469,3.29297 0.574219,4.9375 l -1.304688,5.22266 c -0.246093,0.99609 -1.703124,1.10156 -2.1875,0.15234 l -0.925781,-1.8125 c -0.785156,-1.55078 -0.988281,-3.29687 -0.589843,-4.9375"
       id="path4475" /><path
       style="fill:#dc0c14;fill-opacity:1;fill-rule:nonzero;stroke:none"
       d="m 29.125,235.12891 0.929688,-5.29297 c 0.183593,-1.01563 1.628906,-1.22657 2.183593,-0.31641 l 1.050781,1.76172 c 0.890626,1.49219 1.214844,3.22266 0.917969,4.87109 l -0.933593,5.29688 c -0.179688,1.02344 -1.632813,1.22656 -2.179688,0.3164 l -1.042969,-1.7539 c -0.886719,-1.4961 -1.214843,-3.21485 -0.925781,-4.88281"
       id="path4477" /><path
       style="fill:#dc0c14;fill-opacity:1;fill-rule:nonzero;stroke:none"
       d="m 35.34375,243.37109 0.566406,-5.34375 c 0.105469,-1.02343 1.539063,-1.33984 2.15625,-0.46484 l 1.164063,1.67578 c 0.992187,1.42969 1.441406,3.12891 1.261719,4.80469 l -0.570313,5.35156 c -0.105469,1.02344 -1.542969,1.33203 -2.144531,0.46094 l -1.171875,-1.67578 C 35.625,246.75 35.175781,245.04687 35.34375,243.37109"
       id="path4479" /><path
       style="fill:#dc0c14;fill-opacity:1;fill-rule:nonzero;stroke:none"
       d="m 42.132812,251.16016 0.1875,-5.37891 c 0.03516,-1.03125 1.445313,-1.44531 2.105469,-0.60938 l 1.28125,1.59375 c 1.089844,1.35157 1.648438,3.01172 1.59375,4.70313 l -0.191406,5.37891 c -0.02734,1.03125 -1.441406,1.4375 -2.101563,0.60937 l -1.285156,-1.58984 C 42.636719,254.5 42.074219,252.84375 42.132812,251.16016"
       id="path4481" /><path
       style="fill:#dc0c14;fill-opacity:1;fill-rule:nonzero;stroke:none"
       d="m 49.4375,258.44531 -0.1875,-5.3789 c -0.02734,-1.02735 1.339844,-1.53516 2.0625,-0.75391 l 1.386719,1.49219 c 1.179687,1.26953 1.859375,2.89453 1.921875,4.57812 l 0.183594,5.3711 c 0.03516,1.03906 -1.339844,1.54296 -2.070313,0.75781 l -1.382813,-1.49219 c -1.167968,-1.27734 -1.855468,-2.89062 -1.914062,-4.57422"
       id="path4483" /><path
       style="fill:#dc0c14;fill-opacity:1;fill-rule:nonzero;stroke:none"
       d="m 57.242188,265.20703 -0.558594,-5.35156 c -0.105469,-1.02344 1.226562,-1.625 1.996094,-0.89844 l 1.496093,1.39844 c 1.269531,1.18359 2.054688,2.7539 2.238281,4.4375 l 0.566407,5.35156 c 0.105469,1.02344 -1.234375,1.61328 -2.003907,0.89844 l -1.503906,-1.40235 c -1.273437,-1.1875 -2.058594,-2.75781 -2.230468,-4.43359"
       id="path4485" /><path
       style="fill:#dc0c14;fill-opacity:1;fill-rule:nonzero;stroke:none"
       d="m 65.492188,271.40625 -0.933594,-5.29297 c -0.175782,-1.01953 1.113281,-1.71094 1.941406,-1.03906 l 1.585938,1.28125 c 1.347656,1.10156 2.238281,2.60937 2.53125,4.27344 l 0.941406,5.29296 c 0.171875,1.01563 -1.117188,1.70313 -1.9375,1.04688 l -1.589844,-1.29297 c -1.347656,-1.10156 -2.253906,-2.60156 -2.539062,-4.26953"
       id="path4487" /><path
       style="fill:#dc0c14;fill-opacity:1;fill-rule:nonzero;stroke:none"
       d="m 74.160156,277.02344 -1.304687,-5.21875 c -0.253907,-0.9961 0.996093,-1.78125 1.863281,-1.17188 l 1.667969,1.17969 c 1.425781,0.99609 2.429687,2.44141 2.828125,4.08203 l 1.304687,5.21875 c 0.246094,1 -0.996093,1.78125 -1.867187,1.16406 l -1.667969,-1.16406 c -1.421875,-1.01172 -2.425781,-2.44922 -2.824219,-4.08984"
       id="path4489" /><path
       style="fill:#dc0c14;fill-opacity:1;fill-rule:nonzero;stroke:none"
       d="m 83.191406,282.01562 -1.664062,-5.11328 c -0.3125,-0.97265 0.863281,-1.84375 1.777344,-1.29687 l 1.75,1.05469 c 1.480468,0.90234 2.589843,2.26171 3.109374,3.87109 l 1.660157,5.125 c 0.324219,0.97266 -0.867188,1.84375 -1.78125,1.29687 l -1.738281,-1.0664 c -1.492188,-0.89844 -2.59375,-2.26563 -3.113282,-3.8711"
       id="path4491" /><path
       style="fill:#dc0c14;fill-opacity:1;fill-rule:nonzero;stroke:none"
       d="m 92.550781,286.35547 -2.011719,-4.97656 c -0.386718,-0.95313 0.738282,-1.90235 1.683594,-1.41797 l 1.808594,0.93359 c 1.558594,0.79297 2.75,2.08203 3.375,3.65234 l 2.011719,4.98829 c 0.394531,0.95312 -0.722657,1.89843 -1.667969,1.41406 l -1.824219,-0.9336 c -1.550781,-0.79687 -2.742187,-2.08203 -3.375,-3.66015"
       id="path4493" /><path
       style="fill:#dc0c14;fill-opacity:1;fill-rule:nonzero;stroke:none"
       d="m 102.19531,290.05078 -2.355466,-4.82812 c -0.457032,-0.92579 0.589846,-1.95313 1.570316,-1.53907 l 1.8789,0.8086 c 1.60547,0.6875 2.88282,1.88672 3.625,3.40234 l 2.35547,4.82813 c 0.44922,0.92578 -0.60156,1.94531 -1.57812,1.53125 l -1.87891,-0.8086 c -1.59766,-0.67969 -2.88281,-1.8789 -3.61719,-3.39453"
       id="path4495" /><path
       style="fill:#dc0c14;fill-opacity:1;fill-rule:nonzero;stroke:none"
       d="m 112.07422,293.05469 -2.68359,-4.65625 c -0.51954,-0.89844 0.44921,-1.98438 1.46484,-1.63282 l 1.92187,0.66407 c 1.64844,0.57422 3.00782,1.68359 3.84766,3.14062 l 2.6875,4.65625 c 0.51953,0.89844 -0.46094,1.99219 -1.46484,1.63672 l -1.92188,-0.66797 c -1.65625,-0.5664 -3.00781,-1.67578 -3.85156,-3.14062"
       id="path4497" /><path
       style="fill:#dc0c14;fill-opacity:1;fill-rule:nonzero;stroke:none"
       d="m 122.13281,295.35937 -3.00781,-4.44531 c -0.57812,-0.86328 0.32031,-2.01953 1.35156,-1.73828 l 1.96485,0.53125 c 1.68359,0.45703 3.12109,1.47266 4.0664,2.87891 l 3.00781,4.45312 c 0.57422,0.84766 -0.32031,2.01172 -1.34765,1.73828 l -1.96875,-0.54297 c -1.69531,-0.45312 -3.12891,-1.46484 -4.06641,-2.875"
       id="path4499" /><path
       style="fill:#dc0c14;fill-opacity:1;fill-rule:nonzero;stroke:none"
       d="m 132.32812,296.97266 -3.30468,-4.22657 c -0.64453,-0.8125 0.17578,-2.03515 1.21484,-1.83203 l 2.00391,0.39453 c 1.71484,0.33594 3.21484,1.2461 4.25,2.57422 l 3.3125,4.23438 c 0.6289,0.8125 -0.1836,2.02734 -1.22657,1.83203 l -2,-0.40235 c -1.71093,-0.32812 -3.20312,-1.23437 -4.25,-2.57421"
       id="path4501" /><path
       style="fill:#dc0c14;fill-opacity:1;fill-rule:nonzero;stroke:none"
       d="m 142.60937,297.86328 -3.59765,-3.99609 c -0.69531,-0.76953 0.043,-2.03907 1.09375,-1.90625 l 2.01953,0.24609 c 1.73047,0.20703 3.28906,1.02344 4.42578,2.27734 l 3.60156,3.9961 c 0.6836,0.77344 -0.0391,2.04297 -1.09765,1.91015 l -2.02735,-0.26171 c -1.72656,-0.21094 -3.28125,-1.00782 -4.41797,-2.26563"
       id="path4503" /><path
       style="fill:#dc0c14;fill-opacity:1;fill-rule:nonzero;stroke:none"
       d="m 152.9375,298.03125 -3.86328,-3.74219 c -0.74219,-0.71484 -0.11328,-2.02734 0.96094,-1.97265 l 2.03515,0.12109 c 1.73828,0.0898 3.35156,0.77734 4.57031,1.94922 l 3.86329,3.74609 c 0.74609,0.71485 0.10546,2.03125 -0.95313,1.97656 l -2.03906,-0.11328 c -1.75391,-0.0976 -3.35938,-0.79297 -4.57422,-1.96484"
       id="path4505" /><path
       style="fill:#dc0c14;fill-opacity:1;fill-rule:nonzero;stroke:none"
       d="m 163.24609,297.48437 -4.11718,-3.46093 c -0.78907,-0.66797 -0.24219,-2.01563 0.8164,-2.03516 l 2.03906,-0.0273 c 1.73829,-0.0274 3.39454,0.54687 4.69141,1.64062 l 4.125,3.44922 c 0.78516,0.66016 0.24219,2.02734 -0.82031,2.03516 l -2.04297,0.0273 c -1.74609,0.0273 -3.39844,-0.54687 -4.69141,-1.62891"
       id="path4507" /><path
       style="fill:#dc0c14;fill-opacity:1;fill-rule:nonzero;stroke:none"
       d="m 173.5,296.21484 -4.36328,-3.16015 c -0.82813,-0.60547 -0.37891,-2.00782 0.67969,-2.08985 l 2.04296,-0.16797 c 1.72266,-0.15625 3.42188,0.3086 4.78907,1.30469 l 4.36328,3.15625 c 0.82422,0.60938 0.38281,1.9961 -0.6836,2.08203 l -2.03906,0.17969 c -1.73047,0.14844 -3.42969,-0.3125 -4.78906,-1.30469"
       id="path4509" /><path
       style="fill:#dc0c14;fill-opacity:1;fill-rule:nonzero;stroke:none"
       d="m 183.61719,294.23828 -4.5586,-2.85937 c -0.875,-0.53516 -0.53125,-1.96485 0.51953,-2.125 l 2.01954,-0.31641 c 1.71875,-0.26563 3.44531,0.0703 4.88281,0.97656 l 4.55859,2.84375 c 0.875,0.54688 0.51953,1.97266 -0.52734,2.14063 l -2.01953,0.3164 c -1.71094,0.25782 -3.42969,-0.0859 -4.875,-0.97656"
       id="path4511" /><path
       style="fill:#dc0c14;fill-opacity:1;fill-rule:nonzero;stroke:none"
       d="m 193.59766,291.54687 -4.75391,-2.51953 c -0.91406,-0.49609 -0.65234,-1.92578 0.37109,-2.16406 l 1.98438,-0.45703 c 1.70312,-0.38672 3.4414,-0.16797 4.94531,0.625 l 4.73828,2.52344 c 0.91406,0.48437 0.66797,1.92968 -0.37109,2.16015 l -1.99219,0.44922 c -1.6875,0.39844 -3.43359,0.1836 -4.92187,-0.61719"
       id="path4513" /><path
       style="fill:#dc0c14;fill-opacity:1;fill-rule:nonzero;stroke:none"
       d="m 203.35937,288.1875 -4.91796,-2.19531 c -0.9375,-0.41407 -0.79688,-1.8711 0.21875,-2.17969 l 1.95703,-0.58984 c 1.66015,-0.5 3.41406,-0.40625 4.95703,0.28125 l 4.91797,2.17968 c 0.9375,0.42969 0.79297,1.87891 -0.21875,2.19532 l -1.95703,0.58984 c -1.66797,0.49609 -3.42188,0.39844 -4.95704,-0.28125"
       id="path4515" /><path
       style="fill:#dc0c14;fill-opacity:1;fill-rule:nonzero;stroke:none"
       d="m 212.85547,284.14844 -5.0586,-1.85157 c -0.97265,-0.35156 -0.91796,-1.80859 0.0625,-2.19531 l 1.91797,-0.72265 c 1.63282,-0.61719 3.38672,-0.64454 4.96875,-0.0625 l 5.05078,1.83203 c 0.97266,0.34765 0.92579,1.82031 -0.0625,2.19922 l -1.91406,0.72265 c -1.6289,0.625 -3.38281,0.64453 -4.96484,0.0781"
       id="path4517" /><path
       style="fill:#dc0c14;fill-opacity:1;fill-rule:nonzero;stroke:none"
       d="m 222.04687,279.44922 -5.17578,-1.48828 c -0.98828,-0.27735 -1.04297,-1.75 -0.0898,-2.19922 l 1.85937,-0.84766 c 1.58204,-0.73828 3.32813,-0.87109 4.95704,-0.41406 l 5.17578,1.48437 c 0.98828,0.28907 1.04297,1.75391 0.082,2.19532 L 227,279.03516 c -1.57813,0.73828 -3.32422,0.8789 -4.95313,0.41406"
       id="path4519" /><path
       style="fill:#dc0c14;fill-opacity:1;fill-rule:nonzero;stroke:none"
       d="m 230.89062,274.12109 -5.25781,-1.11718 c -1.01172,-0.21485 -1.17187,-1.66797 -0.23437,-2.1875 l 1.78906,-0.98047 c 1.52344,-0.83594 3.26172,-1.10938 4.91797,-0.75 l 5.25781,1.11328 c 1.01172,0.21875 1.16406,1.66797 0.23828,2.1875 l -1.79687,0.98437 c -1.53516,0.83203 -3.25782,1.09375 -4.91407,0.75"
       id="path4521" /><path
       style="fill:#dc0c14;fill-opacity:1;fill-rule:nonzero;stroke:none"
       d="m 239.34766,268.19531 -5.33594,-0.75781 c -1.03125,-0.14063 -1.28516,-1.57813 -0.38672,-2.16016 l 1.71875,-1.10937 c 1.45703,-0.94531 3.17578,-1.33985 4.84375,-1.10156 l 5.33203,0.7539 c 1.01563,0.14453 1.27734,1.58985 0.39063,2.15625 l -1.71485,1.11719 c -1.47265,0.95312 -3.17969,1.33203 -4.84765,1.10156"
       id="path4523" /><path
       style="fill:#dc0c14;fill-opacity:1;fill-rule:nonzero;stroke:none"
       d="m 247.35547,261.69531 -5.36328,-0.3789 c -1.02344,-0.0781 -1.39063,-1.48829 -0.53516,-2.13282 l 1.63672,-1.22656 c 1.38672,-1.03906 3.07031,-1.55078 4.75391,-1.42578 l 5.37109,0.37109 c 1.03125,0.0781 1.39453,1.4961 0.53906,2.13282 l -1.64062,1.22656 c -1.39453,1.04687 -3.07813,1.54297 -4.76172,1.43359"
       id="path4525" /><path
       style="fill:#dc0c14;fill-opacity:1;fill-rule:evenodd;stroke:none"
       d="m 137.51172,31.6875 7.85937,-5.652344 -3.04297,-9.269531 7.80469,5.71875 7.88281,-5.75 -3.03515,9.1875 7.91015,5.714844 -9.67968,-0.04297 -2.99219,9.285156 -2.94531,-9.21875 z m 0,0"
       id="path4527" /><path
       style="fill:#dc0c14;fill-opacity:1;fill-rule:evenodd;stroke:none"
       d="m 93.121094,45.566406 5.097656,-8.234375 -6.351562,-7.398437 9.394532,2.300781 5.07812,-8.332031 0.71485,9.648437 9.49609,2.257813 -8.96484,3.660156 0.79297,9.726562 -6.25391,-7.390624 z m 0,0"
       id="path4529" /><path
       style="fill:#dc0c14;fill-opacity:1;fill-rule:evenodd;stroke:none"
       d="m 57.425781,75.367188 1.558594,-9.550782 -8.703125,-4.402344 9.566406,-1.472656 1.5,-9.644531 4.355469,8.648437 9.625,-1.550781 -6.871094,6.808594 4.453125,8.683594 -8.605468,-4.433594 z m 0,0"
       id="path4531" /><path
       style="fill:#dc0c14;fill-opacity:1;fill-rule:evenodd;stroke:none"
       d="m 35.847656,116.56641 -2.214844,-9.41797 -9.726562,-0.74219 8.273438,-5.01562 -2.300782,-9.480474 7.328125,6.320313 8.304688,-5.121094 -3.746094,8.929685 7.441406,6.3086 -9.648437,-0.79688 z m 0,0"
       id="path4533" /><path
       style="fill:#dc0c14;fill-opacity:1;fill-rule:evenodd;stroke:none"
       d="m 31.683594,162.89453 -5.652344,-7.86328 -9.269531,3.04297 5.722656,-7.80469 -5.753906,-7.88281 9.1875,3.03906 5.714843,-7.91016 -0.03906,9.67579 9.28125,2.99609 -9.21875,2.94531 z m 0,0"
       id="path4535" /><path
       style="fill:#dc0c14;fill-opacity:1;fill-rule:evenodd;stroke:none"
       d="m 45.5625,207.28125 -8.234375,-5.09766 -7.398437,6.35547 2.300781,-9.39844 -8.332031,-5.07812 9.648437,-0.71484 2.257813,-9.4961 3.664062,8.96485 9.726562,-0.79297 -7.394531,6.2539 z m 0,0"
       id="path4537" /><path
       style="fill:#dc0c14;fill-opacity:1;fill-rule:evenodd;stroke:none"
       d="m 75.363281,242.97656 -9.550781,-1.55469 -4.402344,8.69922 -1.472656,-9.5625 -9.644531,-1.5 8.648437,-4.35547 -1.550781,-9.6289 6.808594,6.87109 8.683593,-4.45312 -4.433593,8.60547 z m 0,0"
       id="path4539" /><path
       style="fill:#dc0c14;fill-opacity:1;fill-rule:evenodd;stroke:none"
       d="m 116.5625,264.55469 -9.41797,2.21484 -0.74219,9.72656 -5.01562,-8.27343 -9.48047,2.30078 6.320312,-7.32813 -5.121093,-8.30469 8.929691,3.7461 6.30859,-7.44141 -0.79687,9.64844 z m 0,0"
       id="path4541" /><path
       style="fill:#dc0c14;fill-opacity:1;fill-rule:evenodd;stroke:none"
       d="m 162.89062,268.71875 -7.86328,5.65234 3.04297,9.27344 -7.80469,-5.72266 -7.88281,5.75782 3.03906,-9.19532 -7.91015,-5.71484 9.67578,0.043 2.99609,-9.28516 2.94532,9.22266 z m 0,0"
       id="path4543" /><path
       style="fill:#dc0c14;fill-opacity:1;fill-rule:evenodd;stroke:none"
       d="m 207.27734,254.84375 -5.09765,8.23047 6.35547,7.39844 -9.39844,-2.30079 -5.07813,8.33204 -0.71484,-9.64844 -9.49219,-2.25781 8.96094,-3.66016 -0.79297,-9.72656 6.25391,7.39062 z m 0,0"
       id="path4545" /><path
       style="fill:#dc0c14;fill-opacity:1;fill-rule:evenodd;stroke:none"
       d="m 242.97266,225.03906 -1.55469,9.55078 8.70312,4.40235 -9.5664,1.47265 -1.5,9.64453 -4.35547,-8.64843 -9.62891,1.55078 6.8711,-6.8086 -4.45313,-8.68359 8.60547,4.43359 z m 0,0"
       id="path4547" /><path
       style="fill:#dc0c14;fill-opacity:1;fill-rule:evenodd;stroke:none"
       d="m 264.55078,183.83984 2.21484,9.41797 9.72657,0.74219 -8.27344,5.01562 2.30078,9.48047 -7.32812,-6.32031 -8.30469,5.12109 3.74609,-8.92187 -7.4414,-6.31641 9.64843,0.80078 z m 0,0"
       id="path4549" /><path
       style="fill:#dc0c14;fill-opacity:1;fill-rule:evenodd;stroke:none"
       d="m 268.71484,137.51562 5.65235,7.85938 9.27343,-3.04297 -5.72265,7.80469 5.75781,7.88281 -9.19531,-3.03516 -5.71485,7.91016 0.043,-9.67969 -9.28515,-2.99218 9.22265,-2.94532 z m 0,0"
       id="path4551" /><path
       style="fill:#dc0c14;fill-opacity:1;fill-rule:evenodd;stroke:none"
       d="m 254.83984,93.125 8.23047,5.097656 7.39844,-6.355468 -2.30078,9.398442 8.33203,5.07812 -9.64844,0.71484 -2.25781,9.4961 -3.66016,-8.96485 -9.72656,0.79297 7.39063,-6.2539 z m 0,0"
       id="path4553" /><path
       style="fill:#dc0c14;fill-opacity:1;fill-rule:evenodd;stroke:none"
       d="m 225.03516,57.429688 9.55078,1.558593 4.40234,-8.703125 1.47266,9.5625 9.64453,1.503906 -8.64844,4.351563 1.55078,9.628906 -6.80859,-6.871093 -8.6836,4.453124 4.4336,-8.605468 z m 0,0"
       id="path4555" /><path
       style="fill:#dc0c14;fill-opacity:1;fill-rule:evenodd;stroke:none"
       d="m 183.83594,35.851562 9.41797,-2.214843 0.74218,-9.726563 5.01563,8.273438 9.48047,-2.300782 -6.31641,7.328126 5.11719,8.304687 -8.91797,-3.746094 -6.32031,7.441407 0.80078,-9.648438 z m 0,0"
       id="path4557" /><path
       style="fill:#dc0c14;fill-opacity:1;fill-rule:nonzero;stroke:none"
       d="m 150.20312,226.70703 c -42.18749,0 -76.507808,-34.32031 -76.507808,-76.50781 0,-42.1875 34.320318,-76.515626 76.507808,-76.515626 42.1875,0 76.51563,34.328126 76.51563,76.515626 0,42.1875 -34.32813,76.50781 -76.51563,76.50781 m 0,-150.785155 c -40.95312,0 -74.277339,33.324215 -74.277339,74.277345 0,40.95312 33.324219,74.26953 74.277339,74.26953 40.95313,0 74.26954,-33.31641 74.26954,-74.26953 0.008,-40.95313 -33.3086,-74.277345 -74.26954,-74.277345"
       id="path4559" /><path
       style="fill:#dc0c14;fill-opacity:1;fill-rule:nonzero;stroke:none"
       d="m 150.20312,253.21484 c -56.808589,0 -103.01562,-46.21093 -103.01562,-103.01562 0,-56.800782 46.214844,-103.015626 103.01562,-103.015626 56.80079,0 103.01563,46.214844 103.01563,103.015626 0,56.80469 -46.21484,103.01562 -103.01563,103.01562 m 0,-203.730465 c -55.531245,0 -100.714839,45.175781 -100.714839,100.714845 0,55.53515 45.183594,100.70703 100.714839,100.70703 55.53125,0 100.71485,-45.17188 100.71485,-100.70703 0,-55.531251 -45.1836,-100.714845 -100.71485,-100.714845"
       id="path4561" /><path
       style="fill:#dc0c14;fill-opacity:1;fill-rule:nonzero;stroke:none"
       d="m 124.89453,237.92969 3.20313,0.98828 -0.69922,2.26953 -9.17969,-2.81641 0.70313,-2.27343 3.25781,1.0039 2.97265,-9.67969 2.71485,0.82813 z m 0,0"
       id="path4563" /><path
       style="fill:#dc0c14;fill-opacity:1;fill-rule:nonzero;stroke:none"
       d="m 110.98047,235.28516 3.17969,-6.46094 c 0.94531,-1.92578 0.69922,-3.27344 -0.59766,-3.91016 -1.33203,-0.65234 -2.52344,-0.0781 -3.49219,1.89063 l -3.17578,6.46093 -2.53125,-1.24218 3.08985,-6.28907 c 1.70703,-3.45703 4.25781,-4.25 7.1875,-2.80468 2.82812,1.38672 3.72656,3.76953 1.96484,7.35547 l -3.07813,6.2539 z m -3.61719,0.42578 c -0.32422,0.64453 -1.04297,0.90625 -1.69531,0.58984 -0.63281,-0.30859 -0.87109,-1.04297 -0.54688,-1.69531 0.30079,-0.61719 1.02344,-0.90625 1.66797,-0.58203 0.66407,0.32812 0.875,1.07031 0.57422,1.6875 z m 3.45703,1.70312 c -0.3164,0.65235 -1.0664,0.90625 -1.71093,0.58985 -0.60938,-0.3086 -0.84766,-1.03516 -0.53125,-1.6875 0.30078,-0.61329 1.01562,-0.89844 1.65234,-0.58985 0.66797,0.32031 0.89062,1.07031 0.58984,1.6875 z m 0,0"
       id="path4565" /><path
       style="fill:#dc0c14;fill-opacity:1;fill-rule:nonzero;stroke:none"
       d="m 99.136719,228.62891 c -0.828125,-0.41407 -1.992188,-1.11329 -3.203125,-1.99219 -1.507813,-1.07813 -2.398438,-2.06641 -2.707032,-3.15625 -0.261718,-0.91797 -0.07812,-1.86328 0.589844,-2.79688 0.929688,-1.28906 2.488282,-1.52343 3.589844,-1.21484 l 0.03516,-0.0391 c -0.507812,-0.80078 -0.40625,-1.76172 0.0078,-2.875 0.511719,-1.375 1.140625,-2.92578 1.230469,-3.45703 l 2.351561,1.6875 c -0.043,0.40625 -0.39453,1.41015 -0.99609,2.875 -0.636721,1.46093 -0.449221,2.125 0.46875,2.8125 l 0.69531,0.5 2.875,-3.99219 2.27344,1.64062 z M 100,222.62109 99.101562,221.97266 c -1.140624,-0.82422 -2.234374,-0.74219 -2.875,0.14843 -0.671874,0.9336 -0.371093,1.85938 0.675782,2.62891 0.550781,0.40234 0.902344,0.58203 1.09375,0.67578 z m 0,0"
       id="path4567" /><path
       style="fill:#dc0c14;fill-opacity:1;fill-rule:nonzero;stroke:none"
       d="m 87.335938,219.73828 -1.984376,-1.97266 3.890626,-3.91796 -0.04297,-0.043 c -0.53125,0.14843 -1.058594,0.2539 -1.570313,0.37109 l -4.9375,0.94531 -2.453125,-2.4375 6.675781,-0.85547 1.972657,-8.15625 2.339843,2.32813 -1.632812,5.98047 1.691406,-0.17578 2.875,-2.88672 1.984375,1.96875 z m 0,0"
       id="path4569" /><path
       style="fill:#dc0c14;fill-opacity:1;fill-rule:nonzero;stroke:none"
       d="m 75.519531,209.98437 c -0.570312,0.44532 -1.359375,0.33594 -1.808593,-0.24218 -0.4375,-0.55078 -0.324219,-1.32422 0.246093,-1.76563 0.523438,-0.41406 1.324219,-0.35156 1.757813,0.20313 0.457031,0.58984 0.328125,1.39453 -0.195313,1.80468 z m -0.08984,-3.33984 9.859374,-7.69141 1.746094,2.23438 -9.859375,7.69531 z m 0,0"
       id="path4571" /><path
       style="fill:#dc0c14;fill-opacity:1;fill-rule:nonzero;stroke:none"
       d="m 81.304688,193.15234 -4.382813,2.63672 -4.292969,7.17969 -1.660156,-2.76172 1.914062,-2.64453 c 0.574219,-0.79688 1.015626,-1.36719 1.550782,-2.0625 l -0.02344,-0.0273 c -0.8125,0.16015 -1.585937,0.28125 -2.539062,0.42187 l -3.222656,0.46094 -1.636719,-2.71094 8.359375,-0.22656 4.460937,-2.67969 z m 0,0"
       id="path4573" /><path
       style="fill:#dc0c14;fill-opacity:1;fill-rule:nonzero;stroke:none"
       d="m 68.746094,179.51172 1.746094,4.25781 2.746093,-1.12109 -1.949219,-4.75391 2.148438,-0.88672 3.027344,7.38672 -11.578125,4.73828 -2.929688,-7.14453 2.144531,-0.875 1.851563,4.51563 2.40625,-0.98438 -1.746094,-4.26172 z m 0,0"
       id="path4575" /><path
       style="fill:#dc0c14;fill-opacity:1;fill-rule:nonzero;stroke:none"
       d="m 69.046875,159.58984 c 0.34375,0.46875 0.820313,1.57032 1.085937,3.07032 0.75,4.25781 -1.515624,6.91015 -5.019531,7.53125 -4.203125,0.74609 -7.070312,-1.84375 -7.722656,-5.56641 -0.25,-1.44531 -0.152344,-2.58594 0.01563,-3.12891 l 2.304688,0.17578 c -0.140626,0.60938 -0.214844,1.42969 -0.03906,2.42188 0.390625,2.20703 2.023437,3.6875 4.765625,3.20312 2.46875,-0.43359 3.761719,-2.16796 3.324219,-4.64843 -0.144531,-0.84375 -0.496094,-1.74219 -0.8125,-2.25391 z m 0,0"
       id="path4577" /><path
       style="fill:#dc0c14;fill-opacity:1;fill-rule:nonzero;stroke:none"
       d="m 56.527344,153.51562 7.195312,-0.0898 c 2.152344,-0.0273 3.234375,-0.85547 3.21875,-2.30078 -0.01953,-1.48438 -1.070312,-2.29297 -3.273437,-2.25781 l -7.195313,0.0898 -0.03516,-2.80859 7.003906,-0.0937 c 3.859375,-0.0469 5.71875,1.875 5.757813,5.13281 0.04297,3.14844 -1.675781,5.02734 -5.664063,5.07812 l -6.972656,0.0898 z m 0,0"
       id="path4579" /><path
       style="fill:#dc0c14;fill-opacity:1;fill-rule:nonzero;stroke:none"
       d="m 66.277344,130.76953 c -1.488282,-0.21094 -3.28125,-0.48437 -5.070313,-0.80859 l -0.01563,0.0547 c 1.5,0.66797 3.15625,1.4961 4.511719,2.23047 l 4.519531,2.36328 -0.390625,2.17579 -4.992187,0.44921 c -1.515625,0.14063 -3.339844,0.2461 -5,0.2461 l -0.0078,0.0352 c 1.648438,0.3711 3.535157,0.76954 5.042969,1.14063 l 4.628906,1.06641 -0.464844,2.57421 -12.144531,-3.00781 0.671875,-3.70312 4.320313,-0.46485 c 1.492187,-0.125 3.09375,-0.22265 4.585937,-0.23828 l 0.0078,-0.0547 c -1.359375,-0.60156 -2.910157,-1.3164 -4.207031,-1.96484 l -3.84375,-2.05469 0.660156,-3.63281 12.410156,1.55859 -0.488281,2.71485 z m 0,0"
       id="path4581" /><path
       style="fill:#dc0c14;fill-opacity:1;fill-rule:nonzero;stroke:none"
       d="m 62.152344,117.83594 4.460937,1.76953 1.710938,-4.32813 -4.460938,-1.76171 1.039063,-2.6211 11.621094,4.59375 -1.039063,2.61328 -4.859375,-1.91406 -1.710938,4.32813 4.867188,1.92187 -1.046875,2.63672 -11.621094,-4.59375 z m 0,0"
       id="path4583" /><path
       style="fill:#dc0c14;fill-opacity:1;fill-rule:nonzero;stroke:none"
       d="m 69.230469,102.81641 6.113281,3.77734 c 1.832031,1.12891 3.191406,1.01172 3.949219,-0.21484 0.777343,-1.26172 0.320312,-2.50391 -1.550781,-3.66016 L 71.625,98.9375 l 1.480469,-2.398438 5.960937,3.683598 c 3.28125,2.02343 3.816406,4.64062 2.105469,7.41797 -1.65625,2.67968 -4.109375,3.33593 -7.503906,1.24609 l -5.925781,-3.66016 z m 0,0"
       id="path4585" /><path
       style="fill:#dc0c14;fill-opacity:1;fill-rule:nonzero;stroke:none"
       d="m 76.941406,91.699219 c 0.484375,-0.785157 1.292969,-1.871094 2.28125,-3.007813 1.21875,-1.394531 2.277344,-2.1875 3.398438,-2.398437 0.933594,-0.167969 1.859375,0.09766 2.730468,0.855469 1.207032,1.054687 1.28125,2.625 0.867188,3.691406 l 0.04297,0.03516 c 0.84375,-0.429688 1.789062,-0.242188 2.863281,0.277344 1.316406,0.632812 2.804688,1.410156 3.324219,1.550781 l -1.910157,2.179687 C 90.140625,94.808594 89.179688,94.359375 87.777344,93.621094 86.386719,92.851562 85.707031,92.96875 84.9375,93.832031 l -0.5625,0.636719 3.703125,3.242188 -1.84375,2.109374 z m 5.898438,1.433593 0.730468,-0.84375 c 0.925782,-1.058593 0.945313,-2.152343 0.117188,-2.875 -0.867188,-0.757812 -1.816406,-0.546874 -2.675781,0.421876 -0.449219,0.519531 -0.667969,0.839843 -0.773438,1.023437 z m 0,0"
       id="path4587" /><path
       style="fill:#dc0c14;fill-opacity:1;fill-rule:nonzero;stroke:none"
       d="m 85.574219,79.441406 c -0.484375,-0.539062 -0.421875,-1.339844 0.121093,-1.816406 0.523438,-0.46875 1.296876,-0.414062 1.773438,0.128906 0.441406,0.496094 0.441406,1.296875 -0.08984,1.765625 -0.546875,0.492188 -1.355468,0.421875 -1.804687,-0.07813 z m 3.332031,-0.308594 8.316406,9.328126 -2.117187,1.886718 -8.316407,-9.335937 z m 0,0"
       id="path4589" /><path
       style="fill:#dc0c14;fill-opacity:1;fill-rule:nonzero;stroke:none"
       d="m 102.76953,84.078125 -2.917968,-4.207031 -7.453124,-3.824219 2.65625,-1.835937 2.765624,1.738281 C 98.660156,76.476562 99.25,76.875 99.980469,77.367188 l 0.02734,-0.01953 C 99.796875,76.546875 99.628906,75.78125 99.425781,74.84375 L 98.75,71.652344 l 2.60938,-1.808594 0.76562,8.335938 2.96484,4.285156 z m 0,0"
       id="path4591" /><path
       style="fill:#dc0c14;fill-opacity:1;fill-rule:nonzero;stroke:none"
       d="m 115.55469,70.664062 -4.13672,2.019532 1.30469,2.664062 4.61328,-2.25 1.01562,2.082032 -7.16797,3.503906 -5.48046,-11.234375 6.92578,-3.386719 1.01953,2.085938 -4.38281,2.136718 1.14062,2.335938 4.13281,-2.019532 z m 0,0"
       id="path4593" /><path
       style="fill:#dc0c14;fill-opacity:1;fill-rule:nonzero;stroke:none"
       d="m 121.00391,63.433594 -3.19922,1.023437 -0.72266,-2.265625 9.15235,-2.925781 0.72265,2.257813 -3.2539,1.046874 3.08593,9.640626 -2.70703,0.871093 z m 0,0"
       id="path4595" /><path
       style="fill:#dc0c14;fill-opacity:1;fill-rule:nonzero;stroke:none"
       d="m 130.60937,56.316406 c -0.14062,-0.710937 0.32422,-1.367187 1.03125,-1.507812 0.69532,-0.132813 1.32422,0.308594 1.46485,1.015625 0.1289,0.660156 -0.28516,1.339843 -0.98047,1.472656 -0.73047,0.152344 -1.39063,-0.324219 -1.51563,-0.980469 z m 3.01563,1.4375 2.39062,12.269532 -2.78125,0.542968 -2.38671,-12.273437 z m 0,0"
       id="path4597" /><path
       style="fill:#dc0c14;fill-opacity:1;fill-rule:nonzero;stroke:none"
       d="m 155.83984,64.078125 c -0.0273,-1.5 -0.0469,-3.316406 -0.0195,-5.132813 h -0.0547 c -0.41406,1.585938 -0.96875,3.359376 -1.47265,4.808594 l -1.60547,4.847656 -2.21094,-0.04297 -1.24609,-4.859375 c -0.38672,-1.472657 -0.78125,-3.261719 -1.04688,-4.894531 h -0.043 c -0.10546,1.683593 -0.19531,3.609374 -0.3164,5.167968 l -0.3086,4.742188 -2.61328,-0.05078 1.01563,-12.46875 3.75781,0.0625 1.15234,4.195313 c 0.36329,1.449219 0.72266,3.015625 0.97266,4.488281 h 0.0586 c 0.37891,-1.4375 0.83204,-3.078125 1.26172,-4.46875 l 1.41016,-4.128906 3.6875,0.0625 0.46094,12.503906 -2.76172,-0.05078 z m 0,0"
       id="path4599" /><path
       style="fill:#dc0c14;fill-opacity:1;fill-rule:nonzero;stroke:none"
       d="m 167.48828,57.824219 -2.08984,12.332031 -2.79688,-0.476562 2.08203,-12.328126 z m -2.32812,-2.40625 c 0.12109,-0.714844 0.78125,-1.164063 1.49609,-1.046875 0.69141,0.121094 1.13672,0.757812 1.00781,1.46875 -0.11328,0.65625 -0.74219,1.15625 -1.4375,1.035156 -0.72265,-0.117188 -1.17578,-0.796875 -1.0664,-1.457031 z m 0,0"
       id="path4601" /><path
       style="fill:#dc0c14;fill-opacity:1;fill-rule:nonzero;stroke:none"
       d="m 173.14062,59 2.73047,0.792969 -2.83593,9.734375 4.77734,1.386718 -0.66797,2.28125 -7.50391,-2.1875 z m 0,0"
       id="path4603" /><path
       style="fill:#dc0c14;fill-opacity:1;fill-rule:nonzero;stroke:none"
       d="m 185.28125,62.96875 2.58594,1.15625 -4.1211,9.246094 4.53516,2.023437 -0.96875,2.167969 -7.125,-3.183594 z m 0,0"
       id="path4605" /><path
       style="fill:#dc0c14;fill-opacity:1;fill-rule:nonzero;stroke:none"
       d="m 199.01953,69.914062 -6.33984,10.769532 -2.44922,-1.4375 6.33984,-10.777344 z m 1.16797,-2.730468 0.45703,2.917968 -1.71094,-1.007812 -0.21875,-1.460938 -0.0273,-0.01953 -1.37891,0.523438 -1.69922,-0.996094 2.75782,-1.027344 z m 0,0"
       id="path4607" /><path
       style="fill:#dc0c14;fill-opacity:1;fill-rule:nonzero;stroke:none"
       d="m 210.03516,87.304688 -3.46485,-3.023438 -1.95703,2.238281 3.87109,3.378907 -1.52734,1.746093 -6.01172,-5.246093 8.22656,-9.417969 5.8125,5.078125 -1.52734,1.746094 -3.67578,-3.207032 -1.71094,1.957032 3.46485,3.03125 z m 0,0"
       id="path4609" /><path
       style="fill:#dc0c14;fill-opacity:1;fill-rule:nonzero;stroke:none"
       d="m 216.61328,101.76563 c -0.78516,-0.48047 -2.16016,-1.48829 -3.21875,-2.757818 -1.46094,-1.753906 -2.07422,-3.386718 -1.95703,-4.980468 0.0898,-1.570313 0.94141,-3.097656 2.35547,-4.261719 3.19922,-2.644531 6.95703,-1.84375 9.58594,1.304687 1.03906,1.234376 1.59375,2.390626 1.7539,3.050782 l -2.11719,0.996094 c -0.21093,-0.714844 -0.57421,-1.53125 -1.45312,-2.582032 -1.50781,-1.808594 -3.67188,-2.320312 -5.75,-0.582031 -1.97656,1.65625 -2.10938,3.863281 -0.62891,5.644531 0.41407,0.5 0.80469,0.847656 1.03516,0.945313 l 2.00781,-1.675781 -1.23437,-1.476563 1.69531,-1.410156 2.98047,3.574219 z m 7.85938,-14.011724 c -0.27344,0.300782 -0.44141,0.796875 0.0508,1.386719 0.49609,0.597656 1.0039,0.5625 1.40234,0.351563 l 0.92578,1.105468 c -1.0664,0.84375 -2.32812,0.859375 -3.45703,-0.496094 -1.17187,-1.410156 -0.89844,-2.609374 0.13281,-3.492187 z m 0,0"
       id="path4611" /><path
       style="fill:#dc0c14;fill-opacity:1;fill-rule:nonzero;stroke:none"
       d="m 230.36328,101.21484 -10.55078,6.67188 -1.51563,-2.39063 10.55469,-6.675778 z m 0.24609,-3.328121 C 231.21875,97.5 232,97.6875 232.38281,98.300781 c 0.37891,0.585938 0.19922,1.34375 -0.41406,1.730469 -0.55859,0.35938 -1.35156,0.21875 -1.72266,-0.371094 -0.40625,-0.632812 -0.20312,-1.417968 0.36328,-1.773437 z m 0,0"
       id="path4613" /><path
       style="fill:#dc0c14;fill-opacity:1;fill-rule:nonzero;stroke:none"
       d="m 232.125,109.26172 -1.45313,-3.03125 2.14063,-1.02344 4.15625,8.65235 -2.13672,1.02343 -1.48047,-3.07031 -9.12109,4.38281 L 223,113.63672 Z m 0,0"
       id="path4615" /><path
       style="fill:#dc0c14;fill-opacity:1;fill-rule:nonzero;stroke:none"
       d="m 239.50781,121.00781 -11.83594,4.05078 -0.91796,-2.68359 11.83593,-4.05469 z m 1.01172,-3.1914 c 0.6875,-0.23828 1.39453,0.125 1.63281,0.8125 0.22657,0.66797 -0.125,1.35937 -0.80468,1.59375 -0.63282,0.21484 -1.36719,-0.10157 -1.60157,-0.77344 -0.24218,-0.69531 0.14063,-1.41797 0.77344,-1.63281 z m 0,0"
       id="path4617" /><path
       style="fill:#dc0c14;fill-opacity:1;fill-rule:nonzero;stroke:none"
       d="m 235.70312,138.59375 c 1.47266,-0.32422 3.2461,-0.69922 5.03907,-1.02344 l -0.008,-0.0547 c -1.64062,-0.10156 -3.48437,-0.29687 -5.01171,-0.51171 l -5.07032,-0.63282 -0.39453,-2.17578 4.53125,-2.17187 c 1.36719,-0.66016 3.05078,-1.40235 4.60156,-1.98438 l -0.008,-0.0352 c -1.67578,0.22265 -3.58203,0.51953 -5.13281,0.69921 l -4.71094,0.63282 -0.46484,-2.57422 12.44922,-1.4375 0.67187,3.71094 -3.89062,1.94921 c -1.35547,0.63672 -2.82032,1.30469 -4.21485,1.83594 l 0.004,0.0586 c 1.48828,0.0898 3.19141,0.21484 4.62891,0.36328 l 4.32812,0.58203 0.66016,3.63281 -12.1875,2.89453 -0.49219,-2.71875 z m 0,0"
       id="path4619" /><path
       style="fill:#dc0c14;fill-opacity:1;fill-rule:nonzero;stroke:none"
       d="m 244.00391,152.03906 c 0.0977,0.75 0.11328,2.25781 0.0195,3.66016 -0.10938,1.71484 -0.34766,2.76172 -0.94532,3.63281 -0.51953,0.83984 -1.41015,1.41406 -2.53906,1.33594 -1.11328,-0.0742 -2.10156,-0.78906 -2.53125,-2.22656 h -0.0352 c -0.48438,1.40234 -1.625,2.38281 -3.23047,2.27734 -1.12891,-0.0781 -1.98438,-0.65234 -2.5625,-1.47266 -0.65625,-0.95312 -0.96485,-2.49609 -0.80469,-4.98047 0.0898,-1.38671 0.25,-2.41796 0.38672,-3.04296 z m -10.49219,2.10938 c -0.0547,0.27343 -0.0742,0.60937 -0.10938,1.08593 -0.0859,1.27735 0.32032,2.44141 1.64063,2.52344 1.26172,0.0859 1.83594,-1.01562 1.92187,-2.41797 l 0.0625,-0.96093 z m 5.53515,0.37109 -0.0625,0.92578 c -0.0977,1.48047 0.46094,2.3125 1.38672,2.37891 0.94141,0.0625 1.4961,-0.625 1.57032,-1.91016 0.043,-0.60937 0.0273,-0.96484 0.008,-1.20703 z m 0,0"
       id="path4621" /><path
       style="fill:#dc0c14;fill-opacity:1;fill-rule:nonzero;stroke:none"
       d="m 233.05078,167.35156 -2.92578,-1.58984 0.66797,-2.84766 11.29687,6.55469 -0.83984,3.61328 -13.04688,0.93359 0.6875,-2.96093 3.34766,-0.21094 z m 1.33203,3.57031 2.75781,-0.16015 c 0.76954,-0.0508 1.72266,-0.0586 2.48829,-0.0703 l 0.008,-0.0352 c -0.67969,-0.35156 -1.5586,-0.74219 -2.21875,-1.10938 l -2.41016,-1.32421 z m 0,0"
       id="path4623" /><path
       style="fill:#dc0c14;fill-opacity:1;fill-rule:nonzero;stroke:none"
       d="m 238.67578,181.86719 -1.07422,2.58984 -5.10547,-2.10937 -0.0195,0.0469 c 0.33594,0.44141 0.63672,0.88281 0.9375,1.3125 l 2.75781,4.21484 -1.33203,3.20313 -3.33203,-5.86328 -8.30469,1.27734 1.26563,-3.05078 6.15625,-0.75781 -0.80859,-1.5 -3.77344,-1.5625 1.07422,-2.58985 z m 0,0"
       id="path4625" /><path
       style="fill:#dc0c14;fill-opacity:1;fill-rule:nonzero;stroke:none"
       d="m 222.77734,193.55078 -2.23047,-2.46875 1.5625,-2.46875 8.50782,9.91016 -1.98438,3.1289 -12.62109,-3.41015 1.625,-2.56641 3.22656,0.90625 z m 0.0898,3.80859 2.66015,0.75782 c 0.74219,0.21093 1.64844,0.51172 2.36719,0.75781 l 0.0234,-0.0273 c -0.52735,-0.55469 -1.22656,-1.21485 -1.72656,-1.77735 l -1.84375,-2.03906 z m 0,0"
       id="path4627" /><path
       style="fill:#dc0c14;fill-opacity:1;fill-rule:nonzero;stroke:none"
       d="m 214.01953,200.80859 9.26953,8.39453 -2.22265,2.44922 -5.14063,-1.15625 c -1.47266,-0.33984 -3.12891,-0.82812 -4.54297,-1.37109 l -0.043,0.043 c 1.34766,0.96875 2.63672,2.0625 4.02344,3.32422 l 2.70703,2.45703 -1.74609,1.91797 -9.26953,-8.39844 1.99218,-2.20313 5.3711,1.26172 c 1.48828,0.34375 3.23437,0.82813 4.72656,1.35547 l 0.0195,-0.0508 c -1.27344,-1.05859 -2.60547,-2.20703 -4.11328,-3.58203 l -2.79297,-2.53125 z m 0,0"
       id="path4629" /><path
       style="fill:#dc0c14;fill-opacity:1;fill-rule:nonzero;stroke:none"
       d="m 211.75391,221.01172 -2.21094,1.77734 -6.33985,-7.89844 -3.875,3.11329 -1.48828,-1.85157 6.08594,-4.88672 z m 0,0"
       id="path4631" /><path
       style="fill:#dc0c14;fill-opacity:1;fill-rule:nonzero;stroke:none"
       d="m 199.32812,230.06641 -6.69921,-10.55469 2.39062,-1.51953 6.70703,10.55078 z m 0,0"
       id="path4633" /><path
       style="fill:#dc0c14;fill-opacity:1;fill-rule:nonzero;stroke:none"
       d="m 179.79687,226.66016 c 0.66407,-0.63282 1.99219,-1.69922 3.49219,-2.39454 2.07422,-0.96093 3.81641,-1.1289 5.32422,-0.60156 1.49219,0.49219 2.75391,1.71094 3.50391,3.38672 1.72656,3.78125 -0.0195,7.21094 -3.74219,8.92578 -1.46875,0.67578 -2.73047,0.91406 -3.41016,0.89844 l -0.41406,-2.30078 c 0.75,-0.0195 1.62891,-0.16016 2.86719,-0.73438 2.14062,-0.98828 3.19922,-2.95312 2.0625,-5.40625 -1.07813,-2.34375 -3.1836,-3.04297 -5.28516,-2.07812 -0.58984,0.27344 -1.03125,0.5625 -1.1875,0.75781 l 1.09375,2.37891 1.75391,-0.8125 0.92578,2.0039 -4.23047,1.94922 z m 11.50782,11.23437 c -0.21875,-0.34375 -0.66016,-0.64062 -1.35547,-0.31641 -0.70703,0.32813 -0.80469,0.82032 -0.69922,1.26172 l -1.3125,0.60938 c -0.53125,-1.24219 -0.22266,-2.46875 1.375,-3.21094 1.66797,-0.77344 2.75781,-0.19141 3.33984,1.03125 z m 0,0"
       id="path4635" /><path
       style="fill:#dc0c14;fill-opacity:1;fill-rule:nonzero;stroke:none"
       d="m 176.58594,240.13672 -3.67578,-11.94141 2.71484,-0.83594 3.67187,11.94141 z m 0,0"
       id="path4637" /><path
       style="fill:#dc0c14;fill-opacity:1;fill-rule:nonzero;stroke:none"
       d="m 150.21094,235.15625 c -2,0 -3.61719,1.62109 -3.61719,3.61328 0,2 1.61719,3.60938 3.61719,3.60938 1.99609,0 3.61718,-1.61719 3.61718,-3.60938 -0.008,-1.99219 -1.625,-3.61328 -3.61718,-3.61328 z m 0,0"
       id="path4639" /><path
       style="fill:#dc0c14;fill-opacity:1;fill-rule:nonzero;stroke:none"
       d="m 141.85156,107.33984 c 0.33594,-3.95703 5.17578,-5.21875 4.53125,-9.035152 -0.80859,4.460942 -4.3125,3.597652 -4.53125,9.035152 z m -2.1875,3.83985 c -0.54687,-1.3711 -0.82031,-2.86719 -0.75781,-4.45703 0.13281,-3.23438 1.625,-6.15235 3.91406,-8.199222 2.3125,-2.054688 2.85938,-3.917969 1.625,-5.546876 3.26953,0.90625 4.88672,3.007813 4.85938,6.320313 -0.21094,5.300785 -4.60547,6.164065 -4.83594,11.882815 z m 18.45703,-12.789065 c 2.20313,2.054685 3.51953,5.019535 3.38672,8.324215 -0.0625,1.57813 -0.45703,3.09766 -1.10156,4.46094 h -4.32813 c 1.45313,-1.70703 3.25391,-3.10156 2.84766,-5.51953 -0.55859,3.12109 -2.4375,3.64063 -3.59766,5.51953 h -4.82421 c 0.21093,-0.5625 0.58203,-1.05469 1.17187,-1.64062 0.34375,-0.33985 0.72266,-0.66797 1.11719,-0.9961 0.41797,-0.35156 0.85547,-0.69531 1.28906,-1.05468 1.73047,-1.42969 3.77344,-3.28907 4.07422,-6.21094 0.0977,-1.0586 0.125,-2.019534 -0.0352,-2.882815 z m -8.8164,12.789065 h -3.70703 c 0.0977,-2.5 1.07812,-3.9961 2.19921,-5.51563 0.30079,-0.40625 0.59766,-0.80859 0.87891,-1.22265 0.30078,-0.44922 0.58203,-0.91016 0.82813,-1.41407 0.51171,-1.04687 0.86718,-2.25781 0.92968,-3.753902 0.0234,-2.082032 -0.73437,-3.785157 -1.6875,-5.070313 -3.88672,-4.867187 -2.30078,-9.367187 1.65235,-10.316406 -2.23438,2.183593 -2.01953,4.476562 0.44922,7.28125 0.0586,-1.355469 0.78515,-2.175781 2.01953,-2.175781 -1.23438,1.269531 -0.69922,2.484374 0.49218,4.097656 0.26563,0.328125 0.58204,0.695312 0.97266,1.101562 2.09766,2.136719 2.97656,3.980469 2.67188,7.019534 -0.48047,4.82422 -6.65235,6.33203 -7.69922,9.96875 z m 0,0"
       id="path4641" /><path
       style="fill:#dc0c14;fill-opacity:1;fill-rule:nonzero;stroke:none"
       d="m 153.94922,165.63281 c -0.72266,1.16016 -1.74219,2.11328 -2.9336,2.77344 -1.05078,0.59375 -2.24218,0.94531 -3.51953,1 -0.14062,0.0234 -0.28125,0.0234 -0.41406,0.0234 -2.0625,0 -3.94922,-0.76563 -5.37891,-2.03516 -1.68359,-1.48828 -2.74609,-3.66797 -2.74609,-6.10156 0,-1.5625 0.44141,-3.03516 1.21875,-4.27735 0.83594,-1.35156 2.05469,-2.4414 3.51953,-3.10546 0.3086,-0.14844 0.63281,-0.26563 0.96875,-0.3711 0.76563,-0.23828 1.57813,-0.36719 2.42578,-0.36719 2.89063,0 5.42578,1.51563 6.8711,3.78907 -1.19141,-1.32813 -2.91797,-2.16016 -4.83594,-2.16016 -0.96875,0 -1.88281,0.21094 -2.70313,0.58203 -0.30078,0.14063 -0.59375,0.30078 -0.85937,0.48438 -1.33984,0.86718 -2.33594,2.22265 -2.75,3.8125 -0.13281,0.51953 -0.19531,1.05859 -0.19531,1.62109 0,1.45703 0.47656,2.82031 1.28906,3.89844 1.19141,1.57812 3.07031,2.60937 5.20312,2.60937 h 0.0156 c 0.42578,0 0.83984,-0.043 1.24609,-0.12109 1.39063,-0.28516 2.64453,-1.01563 3.57813,-2.05469"
       id="path4643" /><path
       style="fill:#dc0c14;fill-opacity:1;fill-rule:nonzero;stroke:none"
       d="m 159.58594,161.92578 1.27734,1.75781 -2.80469,-0.91797 -1.73828,2.39844 v -2.95703 l -2.80859,-0.92187 2.80859,-0.91016 v -2.94531 l 0.74219,1.02343 0.99609,1.35938 2.80469,-0.90234 -1.73437,2.375 z m 0,0"
       id="path4645" /><path
       style="fill:#dc0c14;fill-opacity:1;fill-rule:nonzero;stroke:none"
       d="m 149.83203,142.96875 c -9.88672,0 -17.90234,8.01562 -17.90234,17.90625 0,9.88672 8.01562,17.90234 17.90234,17.90234 9.88672,0 17.90234,-8.01562 17.90234,-17.90234 0.008,-9.89063 -8.00781,-17.90625 -17.90234,-17.90625 z m 0,33.89844 c -8.83594,0 -15.99609,-7.16016 -15.99609,-15.99219 0,-8.83594 7.16015,-15.99609 15.99609,-15.99609 8.83594,0 15.99609,7.16015 15.99609,15.99609 0,8.83203 -7.16015,15.99219 -15.99609,15.99219 z m 0,0"
       id="path4647" /><path
       style="fill:#dc0c14;fill-opacity:1;fill-rule:evenodd;stroke:none"
       d="m 204.77734,154.28125 -2.26172,-2.24219 2.35938,31.67578 c -8.13672,0.71485 -12.75781,1.29688 -20.85547,0.14453 -3.66016,-0.51953 -7.30859,-1.23437 -10.96094,-1.60546 -10.95312,-1.11329 -12.59765,-0.38672 -19.45312,4.57421 l 0.0195,-2.60937 c 6.79687,-4.71484 9.19922,-5.09375 19.64844,-4.02734 7.77734,0.79296 15.28125,2.86328 23.18359,2.17578 l 6.1875,-0.53907 -2.40625,-32.05468 -2.23828,-2.22266 2.41406,32.38281 c -5.91797,0.51953 -9.8164,0.66407 -15.80078,-0.18359 -3.70703,-0.52344 -7.41797,-1.24609 -11.12109,-1.625 -9.87891,-1.01172 -13.02344,-0.96875 -19.84375,3.5625 l 0.0117,-2.49609 c 6.78125,-4.26563 10.80859,-4.07422 20.04296,-3.13672 3.73829,0.3789 7.46875,1.10937 11.20704,1.63281 4.64062,0.66016 8.60937,0.75781 13.25781,0.35156 l -2.4375,-32.7539 -0.21094,-0.20313 -2.08203,-2.01562 -0.008,-0.10547 -0.10547,0.0156 v 0.0273 c -1.66797,-0.10547 -3.32422,-0.33594 -5.23047,-0.65235 -5.98828,-0.98047 -16.03906,-2.16406 -21.5,-2.19922 -4.04297,-0.0312 -8.15625,0.60157 -12.25391,2.4336 l 0.1211,-5.02344 c -0.008,0.008 -0.008,-0.0547 -0.008,-0.0547 v -1.64844 c 0.47657,-0.26171 0.85547,-0.57421 1.00391,-0.96093 0.36328,-0.96094 0.79688,-1.38672 1.34375,-1.28907 v -0.77343 c 4.75781,-1.75782 7.71484,-4.92188 8.94922,-9.41797 l 0.49219,-2.46875 c 0.0898,-0.72656 0.15234,-1.49219 0.17578,-2.28516 l -2.22266,-2.23047 v -3.71093 h -27.77734 v 3.71093 l -2.21094,2.23047 c -0.0195,0.76953 0.0234,1.52344 0.11328,2.25 l 0.52735,2.56641 c 1.26562,4.27344 4.42187,7.69922 8.96093,9.34765 v 0.77344 c 0.76953,-0.008 1.11328,0.46875 1.26172,1.19922 0.27344,0.53906 0.63672,0.89844 1.09375,1.05078 l 0.0703,1.59766 0.13282,5.26953 c -4.19141,-1.94531 -8.42188,-2.60156 -12.56641,-2.57422 -5.46094,0.0352 -15.40625,1.11328 -21.39453,2.10156 -1.92969,0.31641 -3.59766,0.55469 -5.28906,0.66016 2.25781,0 4.53906,-0.17578 6.72656,-0.43359 3.70313,-0.44141 11.80078,-0.50391 15.52344,-0.84375 4.91797,-0.4336 9.8125,0.42187 14.62109,2.75 1.62109,-0.57422 3.35547,-0.91016 5.15625,-0.98047 l 0.0625,-7.65235 h 2.16797 l 0.0781,7.69922 c 1.60547,0.14844 3.14844,0.52735 4.59766,1.08203 4.91797,-2.44922 9.92578,-3.34765 14.94531,-2.89843 3.73047,0.33203 11.92969,0.5 15.62891,0.9414 2.17578,0.25781 4.44141,0.4336 6.67969,0.4336 v 0.0156 l 0.0117,0.625 2.43359,32.43359 -1.60547,0.0703 c -2.54687,0.11718 -5.47656,-0.19922 -8.73828,-0.67578 -5.6875,-0.83204 -11.51563,-1.91407 -17.25,-1.96094 -0.60938,-0.008 -1.21484,0 -1.81641,0.0195 -1.71875,0.0547 -3.41015,0.24609 -5.08593,0.55469 -2.6211,2.26953 -5.91016,3.77734 -9.54297,4.17187 v 0.41406 l -0.0352,18.77735 c -0.008,0.7539 -0.61719,1.35547 -1.36719,1.35547 -0.75,0 -1.35937,-0.60157 -1.36718,-1.35547 l -0.0273,-11.47266 c 0.008,0.008 0.0195,0.0156 0.0273,0.0234 l -0.0273,-0.0234 -0.0156,-7.3125 v -0.35156 c -4.10157,-0.21094 -7.82032,-1.82422 -10.69922,-4.375 -1.38281,-0.21094 -2.77735,-0.36328 -4.19531,-0.41406 -0.60157,-0.0195 -1.20704,-0.0273 -1.8086,-0.0195 -5.73828,0.0469 -11.5625,1.1289 -17.25,1.96093 -3.26172,0.47657 -6.19531,0.79297 -8.73047,0.67578 l -1.60937,-0.0703 2.43359,-32.43359 0.0156,-0.625 v -0.043 l -0.11328,-0.0117 -0.008,0.10547 -2.08203,2.01172 -0.21093,0.20312 -2.4375,32.75391 c 4.65625,0.41016 8.625,0.30469 13.25781,-0.34766 3.74609,-0.53515 7.47656,-1.25781 11.20703,-1.63672 9.32812,-0.94531 13.45703,-0.73437 20.37109,3.71875 l 0.0156,2.39063 c -6.94922,-4.67188 -10.23047,-5.05469 -20.17578,-4.03906 -3.71094,0.3789 -7.41016,1.10156 -11.1211,1.625 -5.98047,0.85156 -9.88281,0.70312 -15.800779,0.18359 l 2.414059,-32.38281 -2.24609,2.22265 -2.402344,32.05469 6.183594,0.53906 c 7.90234,0.69532 15.40625,-1.38281 23.18359,-2.17187 10.52735,-1.07422 13.0586,-0.34375 19.98438,4.51562 l 0.0156,2.53125 c -7.125,-5.18359 -8.66797,-6.11718 -19.78906,-4.98046 -3.65234,0.37109 -7.30078,1.08593 -10.96094,1.60546 -8.10546,1.15235 -12.72656,0.5625 -20.855465,-0.14453 l 2.355469,-31.67578 -2.257813,2.24219 -2.335937,31.31641 c 9.167966,0.80078 14.374996,1.59375 23.386716,0.3164 3.63282,-0.51172 7.25391,-1.22656 10.87891,-1.59765 8.43359,-0.85547 11.15625,-0.46875 16.49219,3.37109 l 3.10156,2.16797 0.0195,3.42969 c 0,0.0156 0,0.0195 0,0.0352 v 4.375 c 0,1.73828 1.42187,3.16406 3.16406,3.16406 h 0.0469 c 1.73828,0 3.16406,-1.42578 3.16406,-3.16406 v -3.2539 l 0.0352,-4.92188 2.76953,-1.83594 c 5.33593,-3.84375 8.05859,-4.23828 16.48828,-3.375 3.625,0.3711 7.24219,1.08203 10.88281,1.59766 9.01563,1.27734 14.21875,0.48437 23.38672,-0.3125 z m -65.9414,-39.19922 h 22.95312 v 2.22266 h -22.95312 z m -0.90625,9.8086 c -0.48828,-0.89844 -0.83985,-1.85938 -1.07032,-2.88672 -0.13281,-0.625 -0.23437,-1.28516 -0.27343,-1.95313 h 27.42578 c -0.0234,0.66016 -0.11328,1.3125 -0.26172,1.95313 -0.21484,1.00781 -0.59375,1.98828 -1.10547,2.91015 -1.55859,2.86719 -4.39062,5.20703 -8.11328,6.27344 h -4.98828 l -2.90235,-0.008 -0.54687,0.008 c -3.78516,-1.17578 -6.62109,-3.36328 -8.16406,-6.29687 z m 15.30468,9.85937 h -5.85546 c -0.30469,-0.15234 -0.51954,-0.37891 -0.625,-0.69922 -0.0937,-0.39453 -0.3086,-0.72266 -0.66797,-1.05859 l -0.008,-0.14844 h 8.42969 l 0.008,0.14844 c -0.33593,0.29297 -0.53125,0.55859 -0.61718,0.88281 -0.0625,0.39062 -0.28516,0.67187 -0.66407,0.875 z m 0,0"
       id="path4649" /></g><path
     style="fill:#db0d15;fill-opacity:1;stroke-width:0.999997"
     d="m 325.36389,179.00499 v -15.27056 l 4.80625,-0.33994 c 5.64115,-0.399 10.94173,0.30452 13.30667,1.76614 2.10751,1.30251 3.08385,3.2488 3.08385,6.14751 0,2.10188 -0.20711,2.5257 -2.13872,4.3765 l -2.13871,2.04925 1.74732,0.94717 c 5.4679,2.96398 4.73747,11.13322 -1.25771,14.06652 -2.10881,1.03178 -3.21388,1.18202 -9.89149,1.34476 l -7.51746,0.1832 z m 13.76472,8.95954 c 1.72332,-1.45007 2.03311,-3.6825 0.76272,-5.49624 -0.84583,-1.20759 -3.49457,-2.09376 -6.27056,-2.09788 l -1.84855,-0.003 v 4.43653 4.43653 h 2.91986 c 2.42208,0 3.17844,-0.21757 4.43653,-1.27618 z m -1.16362,-13.12309 c 0.62415,-0.28438 1.398,-1.15244 1.71968,-1.92904 1.13455,-2.73904 -1.6292,-5.06544 -5.66545,-4.76892 l -2.00053,0.14695 -0.14861,3.15225 c -0.20904,4.43402 -0.061,4.66879 2.68327,4.25725 1.25225,-0.18779 2.78749,-0.5741 3.41164,-0.85849 z m 13.29192,18.21963 c 0.15317,-0.61002 2.21587,-7.43119 4.58376,-15.15815 l 4.30528,-14.04902 h 4.6143 4.6143 l 4.59843,14.78844 c 2.52912,8.13364 4.60536,14.95481 4.61385,15.15815 0.008,0.20334 -1.60688,0.36972 -3.58972,0.36972 h -3.60517 l -1.13951,-3.94359 -1.13953,-3.94359 h -4.56788 -4.56788 l -0.3207,1.35561 c -0.17639,0.74558 -0.65028,2.5202 -1.05311,3.94358 l -0.7324,2.58799 h -3.44626 c -3.32779,0 -3.43669,-0.0381 -3.16776,-1.10914 z m 16.51063,-12.3237 c 0.0165,-1.00637 -3.13855,-11.70109 -3.38057,-11.45905 -0.27054,0.27052 -2.98869,10.59306 -3.01742,11.45905 -0.0143,0.43185 0.9381,0.61618 3.18371,0.61618 2.2293,0 3.20724,-0.18747 3.21428,-0.61618 z m 15.76422,-1.84856 v -15.28139 h 3.45064 3.45063 v 6.74501 6.74501 l 4.55977,-6.73388 4.55978,-6.73389 4.0959,-0.0112 c 3.14939,-0.009 4.00962,0.13127 3.72251,0.60506 -0.20539,0.3389 -2.32583,3.10739 -4.7121,6.15218 -2.38628,3.0448 -4.33284,5.81763 -4.32567,6.16185 0.007,0.34422 2.30722,4.39691 5.11126,9.00597 l 5.09826,8.38012 -3.46305,0.14639 c -1.90469,0.0805 -3.73212,0.0432 -4.06096,-0.0831 -0.32885,-0.12618 -2.23448,-3.15021 -4.23472,-6.72005 l -3.63682,-6.49061 -1.35708,1.62556 c -1.28752,1.54228 -1.35708,1.8855 -1.35708,6.69692 v 5.07134 h -3.45063 -3.45064 z m 28.59098,14.734 c 0,-0.30107 2.03701,-7.17769 4.52667,-15.28139 l 4.52668,-14.734 h 4.59287 c 2.52607,0 4.59286,0.0982 4.59286,0.21817 0,0.18775 8.54565,28.02855 9.12505,29.72843 0.15557,0.45644 -0.73774,0.61619 -3.44568,0.61619 h -3.65572 l -1.15217,-3.82035 -1.15217,-3.82036 -4.50246,-0.1412 -4.50246,-0.14119 -0.74834,2.60593 c -0.41159,1.43327 -0.89738,3.21597 -1.07954,3.96156 -0.32143,1.31566 -0.43128,1.35561 -3.72839,1.35561 -2.16145,0 -3.3972,-0.19912 -3.3972,-0.5474 z m 16.75718,-12.63897 c -0.001,-0.20334 -0.66716,-2.67207 -1.47884,-5.48608 -0.81169,-2.814 -1.4758,-5.42047 -1.4758,-5.79213 0,-1.67074 -0.90082,-0.43107 -1.38953,1.9122 -0.29686,1.42339 -0.97256,4.06874 -1.50158,5.87854 -0.52899,1.80983 -0.83432,3.41807 -0.6785,3.57388 0.42319,0.4232 6.5278,0.34234 6.52425,-0.0864 z m 15.77739,-2.09503 v -15.28139 l 4.06683,0.008 4.06681,0.008 4.29245,7.75576 c 2.36085,4.26566 4.8536,9.03126 5.53945,10.59021 0.68585,1.55895 1.30525,2.83469 1.37646,2.83497 0.0712,2.9e-4 0.0618,-4.76898 -0.021,-10.59838 l -0.15041,-10.59893 h 2.98486 2.98485 v 15.28139 15.28139 l -3.57388,-0.0127 -3.57387,-0.0127 -3.1951,-5.77938 c -1.7573,-3.17863 -4.47376,-8.33037 -6.03656,-11.44826 l -2.84145,-5.66891 -10e-4,11.46104 -0.003,11.46105 h -2.95768 -2.95769 z m 32.53457,0 v -15.28139 h 3.45064 3.45064 v 12.32371 12.32369 h 6.16185 6.16184 v 2.95769 2.9577 h -9.61248 -9.61249 z m 24.15445,0 v -15.28139 h 3.20417 3.20416 v 15.28139 15.2814 h -3.20416 -3.20417 z m 22.2681,14.57916 c -4.98095,-1.6229 -7.94848,-4.93118 -9.28637,-10.35273 -1.42943,-5.79243 0.0984,-11.46394 4.1514,-15.41092 3.15382,-3.07129 6.64169,-4.25142 12.69023,-4.29376 5.07665,-0.0356 8.73265,0.76234 8.37771,1.82835 -0.10747,0.32273 -0.44171,1.54808 -0.74277,2.723 -0.43617,1.70222 -0.71653,2.07049 -1.37994,1.81269 -4.56494,-1.77393 -10.3507,-1.17014 -13.25936,1.3837 -2.27119,1.99412 -3.10375,4.03935 -3.09024,7.59144 0.0137,3.6166 1.29052,6.47851 3.71623,8.32995 1.67444,1.27802 2.24,1.42161 5.59931,1.42161 h 3.73675 l 0.14576,-3.3274 0.14576,-3.3274 h -2.48727 -2.48725 v -2.71121 -2.71122 h 5.66889 5.66891 v 8.11048 8.11047 l -1.84856,0.56554 c -2.9642,0.90687 -12.81773,1.07244 -15.31919,0.25741 z m 24.06902,-14.57916 v -15.28139 h 3.45064 3.45064 v 15.28139 15.2814 h -3.45064 -3.45064 z m -19.96439,-17.58225 c -2.02583,-0.44116 -3.3762,-1.44308 -4.01982,-2.98249 -0.96294,-2.30321 -0.84727,-2.60381 1.002,-2.60381 1.16105,0 1.87989,0.32335 2.37435,1.06805 0.49368,0.74352 1.21345,1.06806 2.36879,1.06806 1.15533,0 1.87509,-0.32454 2.36877,-1.06806 0.49577,-0.74666 1.21306,-1.06805 2.38374,-1.06805 1.5759,0 1.6557,0.0798 1.35403,1.3556 -0.45329,1.91692 -2.0433,3.49401 -4.09815,4.06483 -1.83274,0.50912 -2.10254,0.52111 -3.73371,0.16587 z m -179.5241,-17.40988 c -1.39127,-0.57427 -2.12725,-1.98547 -2.12725,-4.07889 0,-3.47369 4.17852,-5.10417 6.67721,-2.60549 3.02316,3.02317 -0.58343,8.32163 -4.54996,6.68438 z m 40.41826,-0.001 c -2.74696,-1.13329 -3.36246,-5.49052 -1.00852,-7.13928 2.85412,-1.99909 6.27897,-0.0818 6.27897,3.51507 0,2.93748 -2.60078,4.72598 -5.27045,3.62439 z m -57.33395,-12.5762 V 118.7493 h -4.19006 -4.19006 v -2.71121 -2.71122 h 11.58428 11.58428 v 2.69128 2.69128 l -4.06682,0.14317 -4.06682,0.14318 -0.1317,12.44694 -0.13171,12.44693 h -3.19569 -3.1957 z m 36.82454,11.88517 c -6.72898,-2.49373 -10.32313,-8.61816 -9.5271,-16.23416 0.585,-5.59694 3.54701,-9.99958 8.44129,-12.54685 2.02294,-1.05286 3.31701,-1.32022 7.21937,-1.49152 2.97228,-0.13048 5.43593,0.0161 6.57206,0.39108 1.60347,0.5292 1.78082,0.74558 1.50662,1.83809 -0.17093,0.68105 -0.44113,1.89004 -0.60046,2.68664 -0.21742,1.08712 -0.48812,1.36758 -1.0853,1.12448 -1.64374,-0.66909 -6.85855,-0.82517 -8.58069,-0.25681 -4.07266,1.3441 -6.3069,4.66573 -6.32959,9.41015 -0.007,1.59833 0.14065,3.41442 0.32955,4.03577 0.5991,1.97069 2.68185,4.30779 4.8036,5.39023 1.78805,0.9122 2.60406,1.0115 6.32908,0.77016 l 4.27637,-0.27705 0.33627,2.24244 c 0.21518,1.43489 0.13681,2.44191 -0.21761,2.79633 -0.86696,0.86696 -11.20997,0.95987 -13.47346,0.12102 z m 39.85067,-2.14945 c 0.33158,-3.71236 1.70353,-25.12993 1.70353,-26.59381 0,-1.10328 0.12707,-1.13452 4.61568,-1.13452 h 4.61567 l 1.78859,6.08341 c 0.98372,3.34589 2.15238,7.72697 2.597,9.73573 0.44463,2.00877 0.96778,3.95353 1.16256,4.32169 0.2094,0.3958 0.80132,-1.11526 1.44826,-3.6971 0.60175,-2.40158 1.97768,-7.08387 3.0576,-10.40512 l 1.96349,-6.03861 h 4.36423 4.36423 l 0.27835,2.34151 c 0.15311,1.28782 0.51406,7.55443 0.80213,13.92578 0.28808,6.37136 0.62175,12.1943 0.74148,12.93989 l 0.21769,1.3556 h -3.36113 -3.36113 l -0.32201,-7.76393 c -0.1771,-4.27016 -0.33776,-9.76037 -0.35702,-12.20046 -0.0235,-2.97072 -0.17678,-4.11081 -0.46412,-3.45064 -0.23601,0.54224 -1.92225,5.92154 -3.74719,11.95399 l -3.31808,10.96809 h -2.58954 c -2.48915,0 -2.60914,-0.0621 -3.0953,-1.60208 -0.66472,-2.10561 -4.22109,-15.5748 -5.10866,-19.34821 l -0.6957,-2.95769 -0.32826,5.6689 c -0.18054,3.11791 -0.47295,8.60812 -0.64978,12.20047 l -0.32153,6.53156 h -3.12709 -3.1271 z m 40.15347,-12.44694 v -15.28139 h 3.45063 3.45064 v 15.28139 15.28139 h -3.45064 -3.45063 z m 14.29549,0 v -15.28139 h 3.45064 3.45063 v 12.3237 12.32371 h 6.16186 6.16184 v 2.95768 2.95769 h -9.61248 -9.61249 z m 24.15445,0 v -15.28139 h 3.20416 3.20417 v 12.3237 12.32371 h 6.16185 6.16185 v 2.95768 2.95769 h -9.36601 -9.36602 z m 23.66151,0 v -15.28139 h 3.45064 3.45063 v 15.28139 15.28139 h -3.45063 -3.45064 z m 24.6474,0 v -15.28139 h 9.36602 9.36601 v 2.71122 2.71121 h -5.91538 -5.91538 v 3.20416 3.20416 h 5.66891 5.6689 v 2.71122 2.71121 h -5.6689 -5.66891 v 3.94359 3.94358 h 6.16186 6.16185 v 2.71122 2.71121 h -9.61249 -9.61249 z m 33.91104,14.62278 c -6.84225,-1.93781 -10.87948,-8.46067 -10.06423,-16.26055 0.5397,-5.16356 2.95874,-9.10508 7.06496,-11.51148 4.12755,-2.41892 9.97059,-3.19254 15.58961,-2.06408 3.05651,0.61383 3.10847,0.70895 2.24988,4.11875 -0.52458,2.08322 -0.58915,2.14017 -1.84856,1.63015 -0.71775,-0.29066 -3.07962,-0.55025 -5.24859,-0.57686 -3.33167,-0.0409 -4.27244,0.1387 -6.06297,1.15733 -3.68417,2.09591 -5.38951,6.2932 -4.49314,11.05882 0.91014,4.83886 4.53776,7.6841 9.79704,7.6841 h 2.97734 v -3.45063 -3.45064 h -2.21827 -2.21826 v -2.71121 -2.71121 h 5.6689 5.6689 v 8.11046 8.11048 l -1.84856,0.54987 c -2.95317,0.87847 -12.33198,1.0763 -15.01405,0.3167 z m 23.27093,-14.62278 v -15.28139 h 3.45064 3.45064 v 15.28139 15.28139 h -3.45064 -3.45064 z m 19.71792,2.71122 V 118.7493 h -4.19006 -4.19006 v -2.71121 -2.71122 h 11.83076 11.83075 v 2.71122 2.71121 h -4.19006 -4.19006 v 12.57018 12.57017 h -3.45063 -3.45064 z m 19.71792,-2.71122 v -15.28139 h 3.45064 3.45063 v 15.28139 15.28139 h -3.45063 -3.45064 z m 13.79225,13.67931 c -0.006,-0.88114 0.37128,-7.75777 0.83763,-15.28139 l 0.84793,-13.67931 h 4.56615 4.56615 l 1.25724,4.06683 c 0.69148,2.23674 1.95999,6.892 2.81891,10.34501 0.85891,3.45301 1.64084,6.19902 1.73761,6.10225 0.0968,-0.0968 0.73194,-2.25649 1.41146,-4.79936 0.67953,-2.54287 2.03464,-7.11895 3.01137,-10.16906 l 1.77586,-5.54567 h 4.51524 4.51523 l 0.60497,12.44694 c 0.33275,6.84582 0.73714,13.72244 0.89868,15.28139 l 0.29368,2.83445 h -3.21509 c -2.47702,0 -3.28379,-0.179 -3.51431,-0.77974 -0.16457,-0.42886 -0.3293,-3.25715 -0.36606,-6.28509 -0.0368,-3.02794 -0.20313,-8.1314 -0.3697,-11.34103 l -0.30288,-5.83568 -1.87428,6.32863 c -1.03085,3.48075 -2.65966,8.82419 -3.6196,11.8743 l -1.74533,5.54566 h -2.604 -2.604 l -1.60159,-5.79213 c -0.88086,-3.18568 -2.15482,-8.12133 -2.83102,-10.9681 -0.6762,-2.84677 -1.35586,-5.50869 -1.51035,-5.91538 -0.15451,-0.40668 -0.45713,2.58798 -0.67252,6.6548 -0.21539,4.06683 -0.52708,9.44612 -0.69267,11.95399 l -0.30105,4.55977 h -2.91168 -2.91168 z M 449.87252,110.31185 c -1.6865,-1.32661 -1.54509,-3.1559 0.35305,-4.56694 1.27131,-0.94507 1.48159,-0.96676 2.71121,-0.27974 1.84798,1.03251 2.14119,3.9616 0.51088,5.10351 -1.47091,1.03027 -1.98589,0.99327 -3.57514,-0.25683 z m 58.95583,-1.66812 2.11749,-2.71122 2.7177,0.0256 c 2.67089,0.0252 2.7533,0.0697 4.7838,2.58798 l 2.06607,2.56233 -2.18971,0.15026 c -1.87716,0.12881 -2.36557,-0.0471 -3.4217,-1.23237 l -1.23196,-1.38263 -1.20873,1.3556 c -0.98772,1.10774 -1.62395,1.35561 -3.47958,1.35561 h -2.27086 z m 85.19222,2.0729 c -1.52738,-0.76436 -1.98761,-3.74822 -0.73809,-4.78524 1.16385,-0.9659 3.7164,-0.81878 4.50497,0.25966 1.98402,2.71331 -0.77195,6.02437 -3.76688,4.52558 z m 39.54836,0.0319 c -2.14607,-1.03426 -2.03414,-4.23142 0.1835,-5.24184 2.01846,-0.91966 3.85442,0.20505 4.04423,2.47753 0.1181,1.41389 -0.0897,1.96626 -0.97234,2.58448 -1.2886,0.90257 -1.7077,0.92572 -3.25539,0.17983 z m -63.15561,-0.57444 c -1.30115,-0.72117 -2.47451,-2.53729 -2.50154,-3.87185 -0.0236,-1.16383 3.3206,-1.23668 3.76368,-0.082 0.66119,1.72301 4.61491,1.66637 5.2834,-0.0757 0.15227,-0.3968 0.92375,-0.70498 1.76485,-0.70498 1.27719,0 1.49431,0.18457 1.49431,1.27029 0,0.74674 -0.59388,1.86416 -1.44093,2.71121 -1.26884,1.26886 -1.78393,1.43885 -4.31329,1.42347 -1.5798,-0.01 -3.40253,-0.31132 -4.05048,-0.67046 z"
     id="path1383" /></svg>
